<?xml version="1.0" encoding="utf-8"?>
<!-- Generator: Adobe Illustrator 16.0.0, SVG Export Plug-In . SVG Version: 6.00 Build 0)  -->
<!DOCTYPE svg PUBLIC "-//W3C//DTD SVG 1.1//EN" "http://www.w3.org/Graphics/SVG/1.1/DTD/svg11.dtd">
<svg version="1.1" id="Layer_1" xmlns="http://www.w3.org/2000/svg" xmlns:xlink="http://www.w3.org/1999/xlink" x="0px" y="0px"
	 width="264.086px" height="283.667px" viewBox="735.248 12.696 264.086 283.667"
	 enable-background="new 735.248 12.696 264.086 283.667" xml:space="preserve">
<g>
	<path fill="#6B380A" stroke="#000000" stroke-width="7" stroke-miterlimit="10" d="M909.556,155.174h-27.566h-32.166H822.26
		c-2.541,0-5.603,0.945-5.603,2.468v35.833c0,1.523,3.062,3.699,5.603,3.699h22.397v86.36c0,2.54,2.632,4.641,5.166,4.641h32.166
		c2.537,0,4.668-2.101,4.668-4.641v-86.36h22.898c2.536,0,5.102-2.176,5.102-3.699v-35.833
		C914.657,156.119,912.093,155.174,909.556,155.174z"/>
	<path fill="#F9EBAA" stroke="#000000" stroke-width="4.5947" stroke-miterlimit="10" d="M898.069,154.224
		c0,0,27.565-8.841,27.565-50.609c0-41.771-38.891-61.136-55.134-77.383c-1.625-1.622-7.566-1.622-9.188,0
		c-16.247,16.247-55.138,35.612-55.138,77.383c0,41.769,27.566,50.029,27.566,50.029L898.069,154.224z"/>
	<path fill="none" stroke="#000000" stroke-width="4.5947" stroke-miterlimit="10" d="M882.266,36.342c0,0,14.062,51.606,0,66.122"
		/>
	<path fill="none" stroke="#000000" stroke-width="4.5947" stroke-miterlimit="10" d="M851.848,36.342c0,0-14.065,51.606,0,66.122"
		/>
	<path fill="none" stroke="#000000" stroke-width="4.5947" stroke-miterlimit="10" d="M865.848,23.342c0,0-9.19,47.327,0,66.122"/>
	<path fill="none" stroke="#000000" stroke-width="4.5947" stroke-miterlimit="10" d="M900.644,50.127c0,0,14.064,51.609,0,66.118"
		/>
	<path fill="none" stroke="#000000" stroke-width="4.5947" stroke-miterlimit="10" d="M833.463,50.127c0,0-14.058,51.609,0,66.118"
		/>
</g>
</svg>
