<?xml version="1.0" encoding="utf-8"?>
<!-- Generator: Adobe Illustrator 16.0.0, SVG Export Plug-In . SVG Version: 6.00 Build 0)  -->
<!DOCTYPE svg PUBLIC "-//W3C//DTD SVG 1.1//EN" "http://www.w3.org/Graphics/SVG/1.1/DTD/svg11.dtd">
<svg version="1.1" id="Layer_1" xmlns="http://www.w3.org/2000/svg" xmlns:xlink="http://www.w3.org/1999/xlink" x="0px" y="0px"
	 width="264.086px" height="283.667px" viewBox="225.248 12.696 264.086 283.667"
	 enable-background="new 225.248 12.696 264.086 283.667" xml:space="preserve">
<g>
	<polygon fill="#FF8DFF" points="367.445,127.236 367.445,127.236 367.445,127.236 367.445,127.236 371.324,120.292 
		371.324,120.292 371.324,120.292 371.324,120.292 	"/>
	<path fill="none" stroke="#000000" stroke-width="5.8515" stroke-miterlimit="10" d="M461.216,175.069
		c-6.725,12.033-22.142,16.233-34.44,9.37c-12.296-6.871-16.807-22.203-10.08-34.243c6.725-12.037,22.147-16.229,34.438-9.363
		C463.432,147.705,467.946,163.037,461.216,175.069z"/>
	<path fill="none" stroke="#000000" stroke-width="4.096" stroke-miterlimit="10" d="M454.537,171.333
		c-4.708,8.428-15.502,11.371-24.11,6.563c-8.603-4.815-11.761-15.544-7.056-23.975c4.708-8.421,15.502-11.357,24.111-6.546
		C456.09,152.182,459.249,162.914,454.537,171.333z"/>
	<path fill="none" stroke="#000000" stroke-width="2.8672" stroke-miterlimit="10" d="M449.862,168.726
		c-3.295,5.9-10.854,7.963-16.879,4.589c-6.02-3.36-8.233-10.879-4.938-16.773c3.295-5.894,10.852-7.957,16.878-4.586
		C450.951,155.319,453.157,162.832,449.862,168.726z"/>
	<path fill="none" stroke="#000000" stroke-width="2.0071" stroke-miterlimit="10" d="M446.587,166.895
		c-2.302,4.132-7.595,5.573-11.813,3.217c-4.217-2.356-5.767-7.608-3.459-11.75c2.313-4.122,7.598-5.563,11.815-3.203
		C447.349,157.512,448.896,162.764,446.587,166.895z"/>
	<path fill="none" stroke="#000000" stroke-width="1.4049" stroke-miterlimit="10" d="M444.299,165.619
		c-1.618,2.896-5.316,3.899-8.273,2.247c-2.95-1.646-4.033-5.327-2.417-8.216c1.615-2.896,5.32-3.903,8.271-2.247
		C444.829,159.056,445.911,162.729,444.299,165.619z"/>
	<path fill="none" stroke="#000000" stroke-width="5.8515" stroke-miterlimit="10" d="M340.353,129.563
		c-1.024,1.827-3.722,2.267-4.876,1.619l-42.588-15.998c-1.608-0.901-2.605-3.985-1.277-6.358l24.046-43.032
		c1.325-2.38,4.005-3.412,5.614-2.51l36.264,28.058c1.15,0.642,2.349,3.258,1.328,5.088L340.353,129.563z"/>
	<path fill="none" stroke="#000000" stroke-width="5.8515" stroke-miterlimit="10" d="M414.602,250.556
		c1.929,1.079,3.726,1.535,3.309,2.268l-7.105,27.426c-0.57,1.031-2.749,0.158-5.259-1.242l-45.375-25.344
		c-2.503-1.406-4.101-3.313-3.534-4.33l19.372-19.961c0.41-0.725,1.728,0.58,3.657,1.66L414.602,250.556z"/>
	<path fill="none" stroke="#000000" stroke-width="5.8515" stroke-miterlimit="10" d="M479.515,185.301
		c12.012-21.499,3.557-49.11-18.402-61.379c-14.618-8.168-32.817-6.474-45.429-0.12L362.16,93.899
		c-1.831-1.021-2.274,0.7-3.295,2.53l-18.511,33.133c-1.024,1.827-2.858,4.18-1.027,5.204l53.788,30.052
		c0.936,7.219,5.593,16.254,8.851,22.428l-21.56,38.592c-1.024,1.83-1.414,4.822,0.413,5.832l33.129,18.521
		c1.831,1.023,6.3,0.309,7.325-1.523l22.571-40.401C457.935,207.038,471.853,199.021,479.515,185.301z"/>
	<path fill="none" stroke="#000000" stroke-width="5.8515" stroke-miterlimit="10" d="M240.05,32.016
		c0,0,27.321-8.052,31.477,17.586c0,0,8.175,20.375,22.363,12.494"/>
	<path fill="none" stroke="#000000" stroke-width="5.8515" stroke-miterlimit="10" d="M232.651,45.265
		c0,0,27.317-8.045,31.47,17.589c0,0,8.175,20.379,22.363,12.495"/>
	<path fill="none" stroke="#000000" stroke-width="5.8515" stroke-miterlimit="10" d="M225.248,58.517
		c0,0,27.318-8.048,31.473,17.582c0,0,8.171,20.382,22.363,12.495"/>
</g>
<g>
	
		<linearGradient id="SVGID_1_" gradientUnits="userSpaceOnUse" x1="496.8945" y1="91.9741" x2="601.8945" y2="91.9741" gradientTransform="matrix(1 0 0 -1 59.04 247.7324)">
		<stop  offset="0" style="stop-color:#FFFFFF"/>
		<stop  offset="0.0965" style="stop-color:#FEF8F8"/>
		<stop  offset="0.2353" style="stop-color:#FCE5E6"/>
		<stop  offset="0.3997" style="stop-color:#F9C6C8"/>
		<stop  offset="0.5836" style="stop-color:#F49A9E"/>
		<stop  offset="0.7839" style="stop-color:#EE6368"/>
		<stop  offset="0.9949" style="stop-color:#E72027"/>
		<stop  offset="1" style="stop-color:#E71E25"/>
	</linearGradient>
	<path fill="url(#SVGID_1_)" stroke="#000000" stroke-width="7" stroke-miterlimit="10" d="M608.435,36.436
		c-28.967,0-52.5,23.483-52.5,52.45v186.196c0-28.971,23.533-38.463,52.5-38.463s52.5,9.492,52.5,38.463V88.884
		C660.935,59.918,637.401,36.436,608.435,36.436z"/>
	<path fill="#FFFFFF" d="M643.435,181.777c0,3.06-1.567,5.539-3.5,5.539l0,0c-1.933,0-3.5-2.479-3.5-5.539v-77.612
		c0-3.066,1.567-5.545,3.5-5.545l0,0c1.933,0,3.5,2.479,3.5,5.545V181.777z"/>
</g>
<g>
	<path fill="#6B380A" stroke="#000000" stroke-width="7" stroke-miterlimit="10" d="M905.398,155.174h-27.566h-32.166h-27.563
		c-2.541,0-5.603,0.945-5.603,2.468v35.833c0,1.523,3.062,3.699,5.603,3.699H840.5v86.36c0,2.54,2.632,4.641,5.166,4.641h32.166
		c2.537,0,4.668-2.101,4.668-4.641v-86.36h22.898c2.536,0,5.102-2.176,5.102-3.699v-35.833
		C910.5,156.119,907.936,155.174,905.398,155.174z"/>
	<path fill="#F9EBAA" stroke="#000000" stroke-width="4.5947" stroke-miterlimit="10" d="M893.912,154.224
		c0,0,27.565-8.841,27.565-50.609c0-41.771-38.891-61.136-55.134-77.383c-1.625-1.622-7.566-1.622-9.188,0
		c-16.247,16.247-55.138,35.612-55.138,77.383c0,41.769,27.566,50.029,27.566,50.029L893.912,154.224z"/>
	<path fill="none" stroke="#000000" stroke-width="4.5947" stroke-miterlimit="10" d="M878.108,36.342c0,0,14.062,51.606,0,66.122"
		/>
	<path fill="none" stroke="#000000" stroke-width="4.5947" stroke-miterlimit="10" d="M847.69,36.342c0,0-14.065,51.606,0,66.122"/>
	<path fill="none" stroke="#000000" stroke-width="4.5947" stroke-miterlimit="10" d="M861.69,23.342c0,0-9.19,47.327,0,66.122"/>
	<path fill="none" stroke="#000000" stroke-width="4.5947" stroke-miterlimit="10" d="M896.486,50.127c0,0,14.064,51.609,0,66.118"
		/>
	<path fill="none" stroke="#000000" stroke-width="4.5947" stroke-miterlimit="10" d="M829.306,50.127c0,0-14.058,51.609,0,66.118"
		/>
</g>
</svg>
