<?xml version="1.0" encoding="utf-8"?>
<!-- Generator: Adobe Illustrator 16.0.0, SVG Export Plug-In . SVG Version: 6.00 Build 0)  -->
<!DOCTYPE svg PUBLIC "-//W3C//DTD SVG 1.1//EN" "http://www.w3.org/Graphics/SVG/1.1/DTD/svg11.dtd">
<svg version="1.1" id="Layer_1" xmlns="http://www.w3.org/2000/svg" xmlns:xlink="http://www.w3.org/1999/xlink" x="0px" y="0px"
	 width="212.635px" height="236.1px" viewBox="0 0 212.635 236.1" enable-background="new 0 0 212.635 236.1" xml:space="preserve">
<g>
	<g>
		<path d="M175.914,204.062c-6.72-0.895-5.714-6.554-6.771-10.828c-0.117-0.479,1.729-2.089,2.64-2.068
			c4.978,0.111,9.946,0.718,14.925,0.874c5.521,0.171,11.05,0.06,16.572,0.02c1.07-0.007,2.152-0.151,3.203-0.38
			c3.479-0.762,4.271-0.247,4.244,3.394c-0.014,1.738-0.271,3.563-0.854,5.192c-1.312,3.657-2.922,4.015-5.817,1.521
			c-1.422-1.222-2.798-2.184-4.52-0.097c1.497,1.791,6.681,0.917,3.277,5.729c1.746,0.271,2.971,0.38,4.145,0.68
			c0.749,0.191,1.434,0.666,2.146,1.014c-0.631,0.64-1.149,1.518-1.912,1.851c-0.959,0.425-2.149,0.283-3.168,0.618
			c-0.504,0.167-0.84,0.853-1.25,1.303c0.481,0.392,0.925,1.049,1.449,1.125c1.158,0.168,2.422-0.19,3.521,0.118
			c0.761,0.215,1.313,1.18,1.957,1.812c-0.671,0.542-1.263,1.319-2.029,1.567c-0.897,0.293-2.003-0.049-2.919,0.217
			c-0.754,0.218-1.359,0.926-2.036,1.418c0.718,0.521,1.367,1.312,2.159,1.501c1.548,0.37,3.178,0.407,4.771,0.583
			c0.104,0.344,0.211,0.692,0.316,1.04c-0.841,0.575-1.617,1.315-2.545,1.673c-0.791,0.312-1.886-0.068-2.6,0.316
			c-0.887,0.478-1.521,1.431-2.262,2.179c0.808,0.532,1.58,1.459,2.422,1.527c2.539,0.204,5.102,0.075,7.652,0.075
			c-0.061,4.973-3.177,7.306-7.475,6.131c-3.114-0.854-6.273-1.626-9.465-2.081c-1.854-0.265-3.808,0.063-4.049,2.74
			c-0.054,0.592-0.9,1.572-1.349,1.555c-0.603-0.026-1.462-0.743-1.685-1.354c-0.592-1.646-1.322-3.412-1.256-5.1
			c0.237-5.597,0.639-11.202,1.299-16.767c0.511-4.315,0.123-4.952-4.383-4.936c-0.949,1.744-1.861,3.428-2.875,5.29
			c0.713,1.297,1.729,2.782,2.371,4.413c0.764,1.936,0.465,3.602-2.146,3.655c-2.198,0.044-2.888,1.169-2.735,3.23
			c0.174,2.455,0.432,4.952,0.155,7.376c-0.146,1.306-1.338,2.489-2.062,3.728c-0.651-1.208-1.826-2.403-1.854-3.628
			c-0.082-3.125,0.352-6.264,0.604-9.765c-1.346-0.361-2.934-0.76-4.496-1.226c-2.575-0.763-3.102-2.623-1.295-4.605
			c0.602-0.654,1.297-1.214,1.961-1.804c0.576-0.518,1.164-1.019,1.746-1.526c-0.197-0.276-0.278-0.438-0.401-0.553
			c-1.192-1.125-2.396-2.243-3.599-3.36c1.229-1.147,2.396-2.368,3.705-3.416c0.701-0.563,1.643-0.82,2.474-1.22
			C175.858,204.564,175.885,204.314,175.914,204.062z M176.299,201.169c2.574,4.547,5.364,5.938,9.396,4.831
			c3.498-0.962,6.947-2.123,10.389-3.294c0.652-0.225,1.145-0.918,1.712-1.396c-0.694-0.354-1.39-1.007-2.09-1.014
			c-4.729-0.053-9.464-0.026-14.194,0.104C179.896,200.449,178.288,200.865,176.299,201.169z M191.621,198.329
			c0.93-0.636,2.153-1.469,3.381-2.304c-1.224-0.662-2.388-1.701-3.681-1.895c-1.738-0.259-4.559-1.13-4.824,1.498
			C186.188,198.669,189.368,197.226,191.621,198.329z M196.383,224.102c-0.599,0.074-1.401-0.042-1.924,0.287
			c-0.885,0.559-1.594,1.399-2.377,2.122c0.994,0.532,1.935,1.299,2.994,1.531c0.891,0.188,1.964-0.101,2.862-0.425
			c1.027-0.371,1.959-1.02,2.931-1.547c-0.882-0.604-1.724-1.287-2.662-1.772C197.722,224.049,197.056,224.163,196.383,224.102z
			 M196.049,221.946c1.771-1.005,4.742-2.188,4.632-2.704c-0.563-2.608-3.123-1.759-4.863-1.569
			c-1.318,0.141-2.53,1.313-3.787,2.031C193.229,220.374,194.433,221.043,196.049,221.946z M177.323,220.35
			c1.293-1.065,2.363-1.95,3.433-2.832c-1.054-0.94-2.413-2.851-3.101-2.633c-1.516,0.48-2.693,2.032-4.014,3.147
			C174.677,218.684,175.71,219.334,177.323,220.35z M197.088,195.132c0.416,1.152,0.666,2.568,0.976,2.581
			c2.578,0.104,5.172,0.002,7.75-0.187c0.308-0.021,0.89-1.092,0.746-1.37c-0.242-0.474-0.951-0.957-1.479-0.979
			C202.647,195.074,200.212,195.132,197.088,195.132z M183.097,195.048c-2.074,0-4.043-0.117-5.98,0.069
			c-0.646,0.062-1.217,0.902-1.82,1.391c0.615,0.561,1.161,1.47,1.854,1.604c1.322,0.262,2.732,0.123,4.102,0.065
			C183.503,198.081,183.828,196.862,183.097,195.048z M192.491,213.679c3.472,1.649,7.059,1.089,8.726-1.248
			C198.203,210.302,194.405,210.767,192.491,213.679z M201.821,206.218c-1.168-0.874-2.006-2.021-2.785-1.982
			c-2.307,0.109-4.5,0.83-5.712,3.263C196.237,209.333,198.567,208.026,201.821,206.218z M175.259,209.729
			c1.862,0.429,3.699,1.256,4.947-0.806c0.146-0.242-1.145-1.854-1.982-2.104C176.017,206.16,175.403,207.653,175.259,209.729z"/>
		<path d="M118.467,218.615c-1.366-0.266-2.743-0.787-4.094-0.719c-1.438,0.073-2.838,0.766-4.274,1.079
			c-1.742,0.382-3.279,0.081-3.473-2.042c-0.183-2.004,0.992-2.787,2.93-2.761c3.545,0.049,7.09,0.014,10.875,0.014
			c0.104-1.051,0.182-1.873,0.26-2.687c-0.441-0.202-0.694-0.416-0.955-0.421c-2.76-0.038-5.529,0.089-8.275-0.12
			c-1.061-0.08-2.063-0.905-3.089-1.392c0.923-0.498,1.833-1.026,2.778-1.479c1.127-0.536,2.285-1.01,3.431-1.508
			c-0.021-0.39-0.038-0.773-0.06-1.161c-1.203-0.357-2.412-0.689-3.604-1.077c-1.495-0.483-3.667-0.239-3.539-2.701
			c0.131-2.526,2.104-2.456,3.919-2.457c5.521-0.007,11.048,0.021,16.569-0.025c0.842-0.01,2.23-0.084,2.432-0.542
			c1.098-2.474,3.317-1.778,5.18-2.242c4.377-1.087,8.685-2.434,13.063-3.498c1.262-0.313,2.666-0.031,4.006-0.021
			c-0.734,1.145-1.216,2.905-2.247,3.328c-5.157,2.118-10.396,5.085-15.733,5.387c-4.127,0.231-6.008,2.508-9.492,4.247
			c1.285,0.828,2.133,1.208,2.746,1.822c0.553,0.551,1.266,1.457,1.133,2.024c-0.135,0.567-1.188,1.192-1.906,1.293
			c-1.432,0.203-2.906,0.062-4.535,0.062c0,1.11,0,1.94,0,3.168c1.846,0,3.615-0.183,5.315,0.077
			c0.842,0.131,1.558,1.084,2.329,1.663c-0.752,0.568-1.438,1.293-2.277,1.662c-0.865,0.379-1.879,0.412-2.736,0.579
			c-0.847,2.304,4.504,3.664,0.715,5.861c-0.945,0.551-2.736-0.354-4.666-0.681c0,0.734-0.02,1.894,0.002,3.049
			c0.037,2.06,0.41,4.18,0.012,6.146c-0.202,0.987-1.795,1.688-2.758,2.522c-0.547-0.938-1.469-1.843-1.563-2.822
			c-0.227-2.41-0.073-4.857-0.073-7.902c-1.939,1.613-3.297,3.031-4.924,4.001c-1.172,0.7-2.699,1.067-4.072,1.066
			c-0.719,0-1.831-1.001-2.044-1.753c-0.196-0.691,0.336-2.062,0.96-2.43c2.262-1.335,4.674-2.439,7.083-3.508
			c1.494-0.661,3.082-1.097,4.625-1.634C118.444,219.599,118.458,219.107,118.467,218.615z M117.384,207.246
			c1.867,0,3.561,0,5.471,0c-0.082-1.167-0.143-2.094-0.211-3.063c-1.885,0-3.508,0-5.26,0
			C117.384,205.289,117.384,206.214,117.384,207.246z"/>
		<path d="M59.976,227.696c1.022,0,2.045,0,3.066,0c7.6,0,15.202-0.009,22.799,0.01c1.333,0.002,2.983-0.37,3.071,1.756
			c0.088,2.189-1.499,2.187-3.052,2.185c-7.107-0.005-14.214-0.071-21.316,0.042c-2.1,0.035-4.201,0.559-6.287,0.924
			c-1.983,0.349-3.316-0.146-3.509-2.384c-0.006-0.097-0.006-0.195-0.006-0.296c0.066-9.207-0.965-7.537,7.074-7.633
			c6.909-0.082,13.816,0.016,20.727-0.065c0.775-0.009,1.542-0.657,2.313-1.01c-0.783-0.354-1.565-1.005-2.352-1.012
			c-7.796-0.078-15.595-0.048-23.39-0.051c-0.791-0.001-1.704,0.227-2.338-0.093c-0.825-0.409-1.427-1.264-2.126-1.927
			c0.743-0.725,1.475-2.063,2.228-2.075c9.868-0.141,19.739-0.094,29.609-0.092c0.195,0,0.434-0.034,0.583,0.06
			c3.344,2.088,1.157,5.357,1.645,8.052c0.332,1.828-1.053,2.247-2.656,2.24c-7.698-0.03-15.398-0.021-23.097-0.002
			c-1.003,0.001-2.004,0.118-3.006,0.186C59.963,226.906,59.969,227.3,59.976,227.696z"/>
		<path d="M143.065,211.186c-2.289,0-4.396,0-6.816,0c0.168,2.892,0.371,5.611,0.482,8.337c0.24,5.623-3.27,10.053-8.129,10.023
			c-1.189-0.007-2.373-0.868-3.531-1.731c6.572-4.08,6.986-10.274,7.156-16.605c0.071-2.74,0.332-5.471,1.047-8.438
			c2.406,4.282,6.123,3.063,9.396,3.105c5.003,0.066,10.009,0.017,15.04,0.017c-0.477,4.469-3.449,6.606-7.29,5.523
			c-3.069-0.865-3.836-0.447-3.929,2.646c-0.057,1.836,0.139,3.769,0.682,5.514c1.426,4.595,1.346,9.169-0.021,13.671
			c-0.346,1.131-1.846,1.911-2.817,2.854c-0.726-1.011-2.082-2.022-2.075-3.027c0.063-6.482,0.416-12.963,0.678-19.442
			C142.965,212.871,143.015,212.114,143.065,211.186z"/>
		<path d="M24.765,227.217c4.615,0,9.133,0.009,13.653-0.004c1.548-0.003,3.103-0.014,3.149,2.13
			c0.048,2.254-1.514,2.417-3.223,2.417c-11.629-0.011-23.256-0.021-34.885,0.014c-1.704,0.009-3.063-0.429-3.108-2.292
			c-0.045-1.939,1.372-2.295,3.053-2.28c5.893,0.046,11.784,0.019,17.864,0.019c0-1.498,0-2.716,0-3.389
			c-2.319-1.263-4.607-2.042-6.282-3.519c-2.808-2.471-2.59-6.563,0.068-9.211c3.541-3.523,10.158-3.252,13.229,0.549
			c2.445,3.023,2.036,7.447-1.409,9.561C24.444,222.693,24.014,224.359,24.765,227.217z M21.323,212.216
			c-2.383,0.043-4.135,1.626-4.076,3.684c0.055,2.037,1.882,3.537,4.258,3.498c2.383-0.038,4.138-1.619,4.083-3.678
			C25.532,213.698,23.679,212.175,21.323,212.216z"/>
		<path d="M61.646,198.792c2.071,0.004,4.155-0.125,6.209,0.074c0.742,0.07,1.407,0.938,2.107,1.439
			c-0.719,0.491-1.418,1.362-2.166,1.408c-2.354,0.14-4.734-0.169-7.087-0.013c-0.958,0.063-1.868,0.875-2.801,1.344
			c0.973,0.432,1.921,1.147,2.922,1.24c2.153,0.197,4.345-0.032,6.502,0.14c0.679,0.053,1.299,0.833,1.948,1.278
			c-0.632,0.468-1.242,1.289-1.905,1.337c-2.455,0.171-4.937-0.026-7.388,0.163c-0.767,0.063-1.473,0.912-2.205,1.399
			c0.792,0.544,1.56,1.499,2.383,1.553c2.449,0.152,4.924-0.164,7.377-0.046c0.781,0.038,1.524,0.871,2.289,1.344
			c-0.793,0.527-1.547,1.427-2.389,1.519c-2.045,0.229-4.154-0.102-6.199,0.133c-1.864,0.213-3.737,0.718-5.502,1.368
			c-1.918,0.706-3.115,0.605-3.128-1.771c-0.02-3.852,0.022-7.695-0.02-11.543c-0.021-1.793,0.814-2.447,2.539-2.392
			C57.304,198.848,59.476,198.791,61.646,198.792z"/>
		<path d="M20.407,207.474c-4.625,0-9.25-0.004-13.873,0.002c-1.512,0.002-3.362,0.079-3.115-1.988
			c0.091-0.761,1.914-1.856,2.96-1.871c9.345-0.147,18.695-0.147,28.039,0c1.036,0.017,2.816,1.102,2.934,1.892
			c0.329,2.186-1.61,1.957-3.072,1.964C29.656,207.482,25.032,207.474,20.407,207.474z"/>
		<path d="M84.95,205.758c0-2.06-0.261-4.169,0.107-6.163c0.187-0.996,1.514-1.783,2.327-2.668c0.774,0.835,2.178,1.64,2.224,2.514
			c0.227,4.401,0.224,8.829-0.007,13.232c-0.044,0.817-1.511,1.558-2.319,2.336c-0.776-0.827-2.086-1.574-2.227-2.497
			C84.729,210.305,84.952,208.016,84.95,205.758z"/>
		<path d="M77.727,207.108c-1.532,0-2.631,0.15-3.655-0.059c-0.606-0.123-1.098-0.813-1.641-1.246
			c0.53-0.554,0.978-1.418,1.612-1.589c1.004-0.271,2.132-0.072,3.684-0.072c0-1.672-0.207-3.23,0.074-4.699
			c0.175-0.923,1.082-1.705,1.659-2.553c0.604,0.801,1.7,1.582,1.733,2.407c0.175,4.313,0.162,8.645,0.002,12.96
			c-0.029,0.743-1.091,1.444-1.675,2.165c-0.597-0.736-1.562-1.406-1.711-2.229C77.527,210.688,77.727,209.093,77.727,207.108z"/>
		<path d="M119.546,192.086c2.262-0.003,4.549-0.188,6.775,0.093c0.834,0.106,1.537,1.296,2.302,1.99
			c-0.772,0.706-1.521,1.994-2.322,2.029c-4.515,0.196-9.046,0.199-13.565-0.002c-0.827-0.034-1.603-1.314-2.4-2.02
			c0.811-0.697,1.555-1.881,2.438-1.994C114.995,191.894,117.284,192.089,119.546,192.086z"/>
		<path d="M20.155,197.251c2.269,0.002,4.548-0.121,6.8,0.072c0.749,0.063,1.429,0.938,2.143,1.44
			c-0.668,0.688-1.314,1.945-2.006,1.972c-4.727,0.174-9.466,0.174-14.194-0.006c-0.702-0.026-1.354-1.291-2.031-1.979
			c0.728-0.501,1.431-1.369,2.194-1.434C15.413,197.132,17.79,197.251,20.155,197.251z"/>
		<path d="M173.909,223.452c-0.663,2.711-0.952,5.157-1.915,7.308c-0.507,1.132-2.091,1.979-3.369,2.477
			c-0.595,0.231-1.914-0.479-2.374-1.139c-0.348-0.499-0.132-1.817,0.323-2.368c1.766-2.146,3.717-4.14,5.636-6.161
			C172.349,223.423,172.748,223.52,173.909,223.452z"/>
		<path d="M184.317,229.727c-0.106,0.765,0,1.668-0.383,2.266c-0.416,0.65-1.281,1.021-1.953,1.514
			c-0.414-0.664-1.086-1.288-1.19-1.996c-0.283-1.931-0.542-3.911-0.377-5.836c0.079-0.938,1.126-1.795,1.735-2.689
			c0.514,0.787,1.252,1.511,1.492,2.374C184.039,226.755,184.106,228.246,184.317,229.727z"/>
	</g>
	<path d="M161.026,158.304c-1.019,18.913-1.019,21.088-54.872,21.088c-57.084,0-53.563,0-54.871-21.088H161.026z"/>
	<path d="M160,154.687c0,1.143,0.165,1.95-0.992,1.95H53.367c-1.157,0-3.367-0.81-3.367-1.95v-9.303c0-1.141,2.21-3.747,3.367-3.747
		c0,0,79.23,0,105.641,0c1.157,0,0.992,2.606,0.992,3.747V154.687z"/>
	<path d="M149.597,69.304H63.825c-1.154,0-3.825,1.293-3.825,2.434v64.079c0,1.143,2.671,3.487,3.825,3.487h85.771
		c1.153,0,1.402-2.346,1.402-3.487V71.738C151,70.598,150.751,69.304,149.597,69.304z M122,128.772c0,0.875,0.421,1.036,0.119,1.532
		s-31.848,0-31.848,0c-0.429,0-2.271-0.658-2.271-1.532V79.65c0-0.875,1.842-1.346,2.271-1.346l31.515,0.244
		c0.431,0,0.214,0.474,0.214,1.348V128.772z M122,79.896v48.876c0,0,0.421,1.036,0.119,1.532"/>
	<path d="M106.569,62.704l-56.328-4.918l2.068,6.459c0.239,4.061,47.33,3.489,54.26,3.358c0,0,54,1.033,54.261-3.358l2.065-6.459
		L106.569,62.704z"/>
	<path d="M161.026,54.813c-17.631,0.257-44.642-19.509-44.642-19.509h-9.452h-0.882h-9.454c0,0-27.01,19.767-44.642,19.509
		c-6.138,1.071,46.758,5.546,54.536,4.987C114.271,60.359,168.872,55.55,161.026,54.813z"/>
	<path d="M117.008,31.054c0,1.582-0.791,3.25-1.773,3.25H96.57c-0.983,0-1.267-1.668-1.267-3.25l1.627-10.378
		c0-1.346,0.243-2.372,1.075-2.372h15.869c0.832,0,1.504,1.026,1.504,2.372L117.008,31.054z"/>
	<path d="M97.317,13.884C95.303,9.217,100.575,0,106.569,0c5.993,0,12.902,10.207,9.249,13.858
		C111.98,17.698,101.154,17.722,97.317,13.884z"/>
</g>
</svg>
