<?xml version="1.0" encoding="utf-8"?>
<!-- Generator: Adobe Illustrator 16.0.0, SVG Export Plug-In . SVG Version: 6.00 Build 0)  -->
<!DOCTYPE svg PUBLIC "-//W3C//DTD SVG 1.1//EN" "http://www.w3.org/Graphics/SVG/1.1/DTD/svg11.dtd">
<svg version="1.1" id="Layer_1" xmlns="http://www.w3.org/2000/svg" xmlns:xlink="http://www.w3.org/1999/xlink" x="0px" y="0px"
	 width="117px" height="151px" viewBox="0 0 117 151" enable-background="new 0 0 117 151" xml:space="preserve">
<linearGradient id="SVGID_1_" gradientUnits="userSpaceOnUse" x1="-142.1973" y1="-42.6162" x2="-97.7201" y2="-111.5809" gradientTransform="matrix(1 0 0 -1 59.04 4.3398)">
	<stop  offset="0" style="stop-color:#FFFFFF"/>
	<stop  offset="1" style="stop-color:#000000"/>
</linearGradient>
<path fill="url(#SVGID_1_)" d="M-44.01,70.95c0,0,9.51,22.05,4.2,25.909C-43.06,99.221-51,94.12-57,89.8v60.3
	c0,0.5,0.05,0.9-0.5,0.9h-12c-0.55,0-1.5-0.4-1.5-0.9V90.79c-5,4.06-12.35,8.25-15.35,6.069C-91.67,93-81.785,70.95-81.785,70.95
	s-20.798-12.1-18.768-18.35c2.04-6.25,26.051-3.779,26.051-3.779s5.076-23.58,11.656-23.58c6.57,0,11.638,23.58,11.638,23.58
	s23.994-2.471,26.024,3.779C-23.154,58.85-44.01,70.95-44.01,70.95z"/>
<path fill="#6D5C32" stroke="#000000" stroke-width="2" stroke-miterlimit="10" d="M-63,147.104c0,0.496,0.052,0.896-0.5,0.896h-12
	c-0.552,0-1.5-0.4-1.5-0.896V69.897C-77,69.401-76.052,69-75.5,69h12c0.552,0,0.5,0.401,0.5,0.897V147.104z"/>
<path fill="#E9F79A" stroke="#000000" stroke-width="2" stroke-miterlimit="10" d="M-68.833,22.244
	c6.573,0,11.635,23.576,11.635,23.576s23.985-2.47,26.017,3.78c2.031,6.251-18.826,18.352-18.826,18.352S-40.246,90-45.563,93.863
	c-5.317,3.861-23.27-12.233-23.27-12.233s-17.953,16.097-23.27,12.233s4.444-25.911,4.444-25.911s-20.857-12.101-18.826-18.352
	c2.031-6.25,26.017-3.78,26.017-3.78S-75.406,22.244-68.833,22.244z"/>
<line fill="none" stroke="#000000" stroke-width="2" stroke-miterlimit="10" x1="-29" y1="58" x2="-11" y2="58"/>
<line fill="none" stroke="#000000" stroke-width="2" stroke-miterlimit="10" x1="-34.081" y1="37.88" x2="-18.492" y2="28.88"/>
<line fill="none" stroke="#000000" stroke-width="2" stroke-miterlimit="10" x1="-48.973" y1="23.247" x2="-39.972" y2="7.658"/>
<line fill="none" stroke="#000000" stroke-width="2" stroke-miterlimit="10" x1="-70" y1="18" x2="-70" y2="0"/>
<line fill="none" stroke="#000000" stroke-width="2" stroke-miterlimit="10" x1="-89.586" y1="23.739" x2="-98.586" y2="8.151"/>
<line fill="none" stroke="#000000" stroke-width="2" stroke-miterlimit="10" x1="-104.113" y1="38.753" x2="-119.702" y2="29.753"/>
<line fill="none" stroke="#000000" stroke-width="2" stroke-miterlimit="10" x1="-110" y1="59" x2="-128" y2="59"/>
<line fill="none" stroke="#000000" stroke-width="2" stroke-miterlimit="10" x1="-103.728" y1="79.246" x2="-119.317" y2="88.246"/>
<line fill="none" stroke="#000000" stroke-width="2" stroke-miterlimit="10" x1="-33.465" y1="78.389" x2="-17.876" y2="87.389"/>
<path fill="#FF0000" d="M27.964,39.611L27.107,51.2l-5.169,1.578l3.096-36.955l6.03-1.841l23.267,28.906l-5.341,1.631l-7.299-9.099
	L27.964,39.611z M39.643,32.413l-6.685-8.323c-1.518-1.888-2.69-3.667-3.846-5.397l-0.114,0.035c0.022,2.13,0.002,4.327-0.133,6.559
	l-0.881,10.687L39.643,32.413z"/>
<path fill="#FF6B06" d="M76.913,36.154c2.519,1.196,6.204,3.463,9.688,6.116c4.967,3.783,7.512,7.073,8.433,10.84
	c0.868,3.007,0.327,6.206-1.978,9.23c-2.826,3.713-7.76,5.096-12.945,3.495l-0.086,0.114c2.957,3.697,4.936,9.982,0.586,15.691
	c-2.521,3.312-5.748,4.823-9.123,5.229c-4.555,0.412-9.764-1.751-16.043-6.533c-3.427-2.608-5.878-4.84-7.361-6.328L76.913,36.154z
	 M69.88,55.696l4.511,3.434c5.252,4.002,10.422,3.61,13.248-0.102c3.436-4.511,1.357-8.889-3.666-12.716
	c-2.285-1.74-3.727-2.57-4.656-3.006L69.88,55.696z M55.834,74.139c0.84,0.91,2.223,2.054,3.994,3.402
	c5.14,3.914,11.314,5.639,15.574,0.043c4-5.253,1.142-10.857-4.283-14.988l-4.111-3.13L55.834,74.139z"/>
<path fill="#86E805" d="M96.881,133.473c-1.626,0.813-4.878,1.627-9.044,1.627c-9.653,0-16.919-6.099-16.919-17.328
	c0-10.721,7.266-17.985,17.885-17.985c4.27,0,6.961,0.915,8.129,1.522l-1.066,3.608c-1.678-0.813-4.065-1.423-6.911-1.423
	c-8.027,0-13.363,5.132-13.363,14.126c0,8.383,4.827,13.771,13.16,13.771c2.692,0,5.437-0.561,7.215-1.425L96.881,133.473z"/>
<g>
	<path fill="#072DD1" d="M26.167,98.477c2.7-0.406,5.908-0.713,9.422-0.713c6.367,0,10.899,1.477,13.903,4.277
		c3.056,2.801,4.838,6.773,4.838,12.325c0,5.602-1.731,10.186-4.939,13.343c-3.209,3.208-8.506,4.939-15.177,4.939
		c-3.158,0-5.806-0.152-8.047-0.407V98.477z M30.598,128.83c1.121,0.203,2.751,0.254,4.482,0.254
		c9.473,0,14.616-5.297,14.616-14.566c0.051-8.097-4.532-13.24-13.903-13.24c-2.292,0-4.023,0.203-5.195,0.459V128.83z"/>
</g>
</svg>
