<?xml version="1.0" encoding="utf-8"?>
<!-- Generator: Adobe Illustrator 16.0.0, SVG Export Plug-In . SVG Version: 6.00 Build 0)  -->
<!DOCTYPE svg PUBLIC "-//W3C//DTD SVG 1.1//EN" "http://www.w3.org/Graphics/SVG/1.1/DTD/svg11.dtd">
<svg version="1.1" id="Layer_1" xmlns="http://www.w3.org/2000/svg" xmlns:xlink="http://www.w3.org/1999/xlink" x="0px" y="0px"
	 width="153.667px" height="126.333px" viewBox="0 0 153.667 126.333" enable-background="new 0 0 153.667 126.333"
	 xml:space="preserve">
<path fill="#FFFFFF" stroke="#000000" stroke-width="3" stroke-miterlimit="10" d="M77.583,13.65h0.008
	c-0.008,0.046-0.008,0.097-0.008,0.142V13.65z"/>
<path fill="#FFFFFF" stroke="#000000" stroke-width="3" stroke-miterlimit="10" d="M151.833,13.65v0.142
	c0-0.045,0-0.096-0.008-0.142H151.833z"/>
<path fill="#FFFFFF" stroke="#000000" stroke-width="3" stroke-miterlimit="10" d="M1.834,13.65h0.007
	c-0.007,0.046-0.007,0.097-0.007,0.142V13.65z"/>
<path fill="#FFFFFF" stroke="#000000" stroke-width="3" stroke-miterlimit="10" d="M77.583,13.65v0.142c0-0.045,0-0.096-0.008-0.142
	H77.583z"/>
<path fill="#FFFFFF" stroke="#000000" stroke-width="3" stroke-miterlimit="10" d="M77.583,13.792V110.4h-0.008
	c-0.232-6.638-17.102-12-37.868-12s-37.636,5.362-37.868,12H1.834V13.792c0-0.045,0-0.096,0.007-0.142
	c0.232-6.638,17.1-12,37.868-12c20.767,0,37.634,5.362,37.867,12C77.583,13.696,77.583,13.747,77.583,13.792z"/>
<path fill="#FFFFFF" stroke="#000000" stroke-width="3" stroke-miterlimit="10" d="M151.833,13.792V110.4h-0.008
	c-0.226-6.638-16.757-12-37.117-12s-36.894,5.362-37.117,12h-0.008V13.792c0-0.045,0-0.096,0.008-0.142
	c0.226-6.638,16.757-12,37.117-12s36.894,5.362,37.117,12C151.833,13.696,151.833,13.747,151.833,13.792z"/>
<g>
	<path fill="#8BD848" d="M107.158,62.745c0,0-46.912,61.438-73.817,61.938l0.028-2.464c0,0,31.627-6.674,63.97-57.782
		L107.158,62.745z"/>
	<path d="M107.301,62.855c-2.424,3.311-4.946,6.543-7.54,9.72c-2.581,3.187-5.266,6.288-7.971,9.37
		C86.334,88.07,80.657,94,74.731,99.676c-1.498,1.403-2.982,2.819-4.516,4.184c-1.51,1.389-3.076,2.717-4.629,4.058
		c-1.584,1.306-3.158,2.624-4.792,3.869c-0.805,0.637-1.62,1.261-2.456,1.858c-0.835,0.598-1.644,1.232-2.501,1.799l-2.552,1.728
		l-2.621,1.624c-1.777,1.033-3.575,2.035-5.448,2.894c-1.863,0.871-3.786,1.63-5.771,2.194l-0.739,0.227l-0.758,0.159l-1.517,0.314
		c-1.013,0.204-2.058,0.212-3.085,0.326l-0.234,0.026l0.003-0.256l0.026-2.464l0.002-0.178l0.18-0.043
		c1.751-0.42,3.467-1.084,5.162-1.741c1.678-0.712,3.35-1.444,4.967-2.293c1.652-0.78,3.208-1.742,4.798-2.637
		c1.57-0.931,3.081-1.961,4.624-2.936l4.451-3.193c1.453-1.105,2.854-2.278,4.283-3.414l1.067-0.858l1.014-0.922l2.021-1.85
		l2.023-1.844c0.659-0.632,1.293-1.289,1.941-1.933l3.87-3.873l3.697-4.042l1.858-2.012l1.753-2.105l3.508-4.212
		c1.177-1.398,2.216-2.905,3.331-4.353l3.292-4.387l6.149-9.086l0.063-0.095l0.103-0.017l10.268-1.7L107.301,62.855z M106.7,63.011
		l-9.318,1.668l0.165-0.11l-6.045,9.188l-3.245,4.443c-1.1,1.468-2.124,2.994-3.286,4.413l-3.468,4.276l-1.734,2.139l-1.842,2.047
		l-3.706,4.075c-1.285,1.313-2.612,2.583-3.927,3.865c-0.662,0.636-1.31,1.287-1.982,1.912l-2.084,1.803l-2.085,1.798l-1.04,0.902
		l-1.08,0.854c-1.447,1.13-2.866,2.297-4.336,3.396l-4.503,3.171c-1.561,0.968-3.087,1.989-4.675,2.911
		c-1.61,0.883-3.178,1.842-4.841,2.628c-1.628,0.85-3.314,1.585-5.007,2.299c-1.718,0.662-3.428,1.323-5.243,1.754l0.182-0.221
		l-0.031,2.464l-0.23-0.229c1.005-0.112,2.024-0.115,3.019-0.313c0.988-0.232,2.004-0.345,2.961-0.702
		c1.95-0.574,3.843-1.341,5.679-2.221c1.845-0.865,3.618-1.877,5.372-2.918l2.587-1.636l2.52-1.74c0.846-0.57,1.645-1.21,2.47-1.812
		c0.825-0.602,1.63-1.229,2.425-1.872c1.613-1.253,3.168-2.58,4.733-3.894c1.533-1.353,3.085-2.682,4.579-4.077
		c1.518-1.369,2.988-2.791,4.47-4.199c2.931-2.852,5.803-5.764,8.62-8.729c1.396-1.494,2.801-2.981,4.174-4.498
		c1.388-1.501,2.734-3.042,4.107-4.558c2.742-3.036,5.403-6.145,8.073-9.245C101.669,69.05,104.211,66.051,106.7,63.011z"/>
</g>
<g>
	<path fill="#6BBA20" d="M99.996,64.295c0,0-16.177,30.789,14.713,34.104c0,0,14.515-2.482,16.75-11.107
		C134.887,74.069,123.89,54.583,99.996,64.295z"/>
	<path d="M100.071,64.375c-0.716,1.762-1.354,3.551-1.862,5.371c-0.526,1.828-0.944,3.68-1.244,5.539
		c-0.573,3.707-0.637,7.53,0.479,11.004c0.566,1.721,1.403,3.342,2.551,4.73c1.133,1.398,2.535,2.587,4.104,3.557
		c1.568,0.973,3.306,1.702,5.101,2.268c0.897,0.289,1.816,0.518,2.741,0.729c0.926,0.207,1.866,0.344,2.809,0.479l-0.097,0.003
		c1.425-0.226,2.851-0.606,4.238-1.039c1.387-0.453,2.75-0.983,4.05-1.636c1.305-0.643,2.538-1.416,3.66-2.305
		c1.129-0.882,2.121-1.918,2.875-3.078c0.365-0.586,0.691-1.191,0.91-1.834c0.25-0.643,0.371-1.259,0.512-2.011
		c0.238-1.383,0.311-2.78,0.264-4.194c-0.039-1.41-0.252-2.812-0.57-4.182c-0.315-1.371-0.775-2.708-1.371-3.977
		c-0.602-1.264-1.27-2.498-2.104-3.615c-0.828-1.119-1.76-2.157-2.787-3.092c-1.045-0.914-2.189-1.709-3.408-2.383
		c-1.233-0.643-2.53-1.177-3.887-1.547c-1.359-0.344-2.753-0.627-4.177-0.689c-1.419-0.121-2.856-0.066-4.294,0.044
		c-0.716,0.081-1.434,0.183-2.15,0.284l-2.141,0.418l-2.125,0.536L100.071,64.375z M99.925,64.217l2.055-0.932l2.083-0.792
		c0.704-0.239,1.422-0.445,2.14-0.653c0.729-0.167,1.459-0.335,2.195-0.482c1.48-0.238,2.986-0.443,4.508-0.417
		c1.521-0.021,3.049,0.174,4.555,0.479c1.502,0.338,2.963,0.863,4.367,1.521c1.383,0.707,2.682,1.572,3.875,2.567
		c2.355,2.027,4.215,4.613,5.406,7.453c0.613,1.414,1.071,2.891,1.373,4.395c0.305,1.503,0.489,3.032,0.488,4.566
		c-0.008,1.525-0.182,3.074-0.518,4.576c-0.166,0.686-0.365,1.515-0.705,2.224c-0.315,0.729-0.746,1.397-1.211,2.022
		c-0.953,1.239-2.115,2.26-3.361,3.111c-1.241,0.868-2.588,1.534-3.938,2.159c-2.729,1.198-5.551,2.094-8.47,2.729l-0.038,0.01
		l-0.06-0.006c-0.963-0.084-1.924-0.209-2.887-0.336c-0.959-0.146-1.92-0.313-2.869-0.541c-1.9-0.447-3.781-1.08-5.55-2.01
		c-0.879-0.469-1.75-0.979-2.538-1.613c-0.791-0.627-1.535-1.322-2.199-2.097c-1.315-1.558-2.287-3.401-2.863-5.339
		c-0.59-1.936-0.831-3.945-0.805-5.928c0.018-1.982,0.279-3.94,0.705-5.848c0.207-0.955,0.461-1.897,0.752-2.826
		c0.293-0.928,0.599-1.85,0.967-2.746c0.731-1.795,1.521-3.563,2.522-5.219L99.925,64.217z"/>
</g>
<g>
	<path fill="#6BBA20" d="M95.266,62.015c0,0,29.364,1.862,30.207-15.896c0,0,1.94-31.299-31.429-22.246
		c0,0-14.308,4.492-10.545,20.979C83.5,44.852,84.703,56.234,95.266,62.015z"/>
	<path d="M95.294,61.914c2.293-0.063,4.58-0.207,6.845-0.495c2.271-0.274,4.528-0.634,6.733-1.165
		c2.201-0.535,4.369-1.192,6.403-2.114c2.036-0.909,3.925-2.099,5.507-3.58c1.555-1.509,2.734-3.349,3.407-5.412
		c0.696-2.063,0.739-4.332,0.632-6.599c-0.117-2.264-0.453-4.532-1.117-6.71c-0.649-2.18-1.649-4.259-2.988-6.088
		c-1.327-1.833-3.039-3.389-5.016-4.46c-1.965-1.089-4.136-1.767-6.355-2.063c-2.227-0.278-4.479-0.252-6.719-0.069
		c-2.236,0.283-4.467,0.638-6.66,1.222l-1.646,0.42c-0.399,0.147-0.946,0.377-1.418,0.622c-0.979,0.478-1.901,1.075-2.772,1.724
		c-1.721,1.327-3.205,2.94-4.258,4.806c-0.232,0.482-0.537,0.931-0.715,1.437l-0.576,1.503c-0.236,1.05-0.553,2.087-0.59,3.184
		c-0.166,1.078-0.063,2.179-0.047,3.278c0.057,1.1,0.303,2.194,0.439,3.296l0.018,0.106c0.042,0.378,0.111,0.822,0.193,1.238
		c0.074,0.423,0.174,0.845,0.273,1.267c0.207,0.842,0.469,1.673,0.76,2.494l0.474,1.218l0.534,1.196
		c0.185,0.396,0.4,0.775,0.6,1.165c0.191,0.396,0.438,0.757,0.664,1.132c0.438,0.763,0.986,1.447,1.502,2.16l0.859,1
		c0.271,0.351,0.594,0.649,0.904,0.964c0.317,0.305,0.609,0.643,0.951,0.924l1.022,0.852C93.817,60.934,94.576,61.388,95.294,61.914
		z M95.218,62.103c-0.783-0.44-1.627-0.807-2.37-1.328l-1.13-0.767c-0.381-0.255-0.713-0.569-1.071-0.852
		c-0.353-0.293-0.718-0.572-1.033-0.905l-0.97-0.977c-0.59-0.7-1.219-1.38-1.732-2.144c-0.267-0.375-0.552-0.74-0.783-1.139
		c-0.237-0.394-0.494-0.779-0.719-1.182l-0.654-1.222l-0.573-1.263c-0.354-0.855-0.679-1.724-0.945-2.614
		c-0.131-0.446-0.261-0.893-0.366-1.349c-0.111-0.461-0.197-0.902-0.272-1.414l0.019,0.105c-0.199-1.175-0.5-2.336-0.607-3.533
		c-0.076-1.202-0.203-2.406-0.047-3.622c0.023-1.22,0.343-2.413,0.601-3.612l0.626-1.738c0.212-0.579,0.553-1.101,0.827-1.652
		c1.217-2.146,2.92-3.992,4.896-5.41c0.992-0.703,2.03-1.337,3.137-1.845c0.562-0.264,1.08-0.486,1.771-0.708l1.716-0.394
		c2.275-0.557,4.619-0.861,6.967-1.038c2.358-0.102,4.737-0.019,7.066,0.449c2.323,0.473,4.582,1.325,6.585,2.586
		c2.007,1.259,3.722,2.935,5.074,4.845c1.351,1.915,2.397,4.03,3.134,6.245c0.75,2.21,1.273,4.499,1.563,6.825
		c0.272,2.307,0.406,4.74-0.213,7.125c-0.601,2.373-1.926,4.574-3.682,6.272c-1.771,1.69-3.895,2.908-6.072,3.85
		c-2.201,0.905-4.484,1.526-6.787,1.949c-2.305,0.433-4.633,0.639-6.955,0.729c-2.324,0.039-4.646,0.021-6.95-0.264l-0.026-0.003
		L95.218,62.103z"/>
</g>
<g>
	<path fill="#6BBA20" d="M99.612,61.647c0,0,6.354,26.055-24.876,22.329c0,0-25.309-7.646-15.969-24.774
		C58.767,59.202,78.02,25.012,99.612,61.647z"/>
	<path d="M99.708,61.624c0.492,1.656,0.723,3.375,0.828,5.107c0.043,0.866,0.063,1.74-0.009,2.611
		c-0.049,0.873-0.168,1.742-0.321,2.611c-0.088,0.432-0.201,0.858-0.302,1.289l-0.399,1.271c-0.31,0.834-0.664,1.658-1.108,2.439
		c-0.239,0.379-0.459,0.773-0.72,1.142c-0.273,0.356-0.531,0.729-0.822,1.075l-0.918,0.998l-1.014,0.902
		c-0.721,0.545-1.455,1.073-2.252,1.497c-0.383,0.24-0.791,0.425-1.2,0.606c-0.41,0.181-0.81,0.394-1.236,0.523l-1.269,0.43
		c-0.428,0.121-0.859,0.215-1.291,0.324c-0.855,0.246-1.736,0.316-2.606,0.457c-0.874,0.082-1.749,0.152-2.623,0.182
		c-0.872-0.018-1.745,0-2.612-0.049c-0.864-0.068-1.731-0.11-2.591-0.203l-2.569-0.332l-0.06-0.008l-0.032-0.013
		c-1.778-0.642-3.447-1.42-5.108-2.251c-1.646-0.85-3.266-1.754-4.792-2.813c-1.536-1.037-2.99-2.211-4.298-3.549
		c-1.301-1.338-2.451-2.871-3.225-4.623c-0.778-1.742-1.175-3.688-1.092-5.625c0.063-1.942,0.608-3.833,1.369-5.584l0.618-1.313
		c0.237-0.428,0.477-0.826,0.726-1.228c0.497-0.799,1.027-1.574,1.584-2.329c1.109-1.515,2.313-2.963,3.632-4.317
		c1.319-1.352,2.75-2.613,4.32-3.712c1.582-1.076,3.287-2.028,5.15-2.636c1.859-0.606,3.841-0.884,5.808-0.787
		c1.98,0.053,3.885,0.676,5.648,1.441l1.3,0.641c0.425,0.225,0.813,0.505,1.221,0.759c0.827,0.489,1.547,1.112,2.289,1.701
		c1.458,1.209,2.741,2.589,3.938,4.021c0.625,0.694,1.136,1.478,1.705,2.21c0.578,0.729,1.066,1.518,1.562,2.302
		c1.026,1.541,1.878,3.186,2.761,4.8l0.008,0.012L99.708,61.624z M99.516,61.684c-1.091-1.478-2.062-3.026-3.228-4.43
		c-1.104-1.455-2.295-2.836-3.535-4.152c-1.258-1.303-2.594-2.513-4.015-3.588c-0.726-0.515-1.428-1.064-2.212-1.469
		c-0.386-0.21-0.754-0.457-1.146-0.646l-1.195-0.533c-1.611-0.628-3.294-1.092-5.004-1.11c-1.703-0.05-3.405,0.231-5.032,0.783
		c-1.639,0.526-3.182,1.378-4.634,2.36c-1.461,0.977-2.833,2.116-4.109,3.362c-1.278,1.248-2.464,2.601-3.562,4.024
		c-0.557,0.706-1.067,1.446-1.581,2.181c-0.252,0.369-0.502,0.747-0.727,1.113l-0.605,1.157c-0.769,1.579-1.317,3.257-1.508,4.985
		c-0.186,1.727,0.034,3.498,0.665,5.148c0.627,1.646,1.596,3.191,2.817,4.521c1.208,1.343,2.621,2.503,4.117,3.534
		c1.508,1.018,3.101,1.918,4.765,2.66c1.648,0.766,3.386,1.389,5.104,1.879l-0.091-0.02l2.531,0.145
		c0.842,0.031,1.685,0.013,2.524,0.021c0.84-0.011,1.675-0.088,2.509-0.128c0.828-0.092,1.656-0.167,2.478-0.282
		c0.808-0.173,1.637-0.254,2.425-0.482c0.396-0.104,0.798-0.192,1.19-0.307l1.155-0.396c0.396-0.111,0.755-0.301,1.13-0.455
		c0.372-0.158,0.746-0.316,1.092-0.525c0.722-0.367,1.381-0.828,2.033-1.299l0.922-0.773l0.849-0.855
		c0.271-0.297,0.511-0.621,0.771-0.93c0.244-0.319,0.453-0.668,0.684-1c0.216-0.342,0.396-0.705,0.604-1.057
		c0.187-0.361,0.347-0.736,0.522-1.105l0.437-1.15c0.115-0.395,0.244-0.785,0.351-1.186C99.837,68.48,99.971,65.043,99.516,61.684z"
		/>
</g>
<g>
	<path d="M99.965,64.335c0,0-0.627-0.393-1.774-0.976c-1.138-0.599-2.805-1.369-4.861-2.113c-1.029-0.369-2.155-0.734-3.366-1.051
		c-1.205-0.333-2.489-0.665-3.848-0.867c-1.354-0.249-2.784-0.301-4.228-0.241c-1.441,0.114-2.903,0.309-4.309,0.73
		c-1.414,0.382-2.775,0.913-4.095,1.464c-0.642,0.32-1.294,0.6-1.915,0.926c-0.608,0.35-1.223,0.67-1.801,1.03
		c-0.572,0.37-1.135,0.734-1.686,1.09c-0.527,0.392-1.049,0.766-1.561,1.126c-0.51,0.362-0.961,0.775-1.432,1.132
		c-0.472,0.354-0.909,0.722-1.311,1.096c-0.828,0.721-1.566,1.406-2.201,2.038c-0.65,0.616-1.204,1.17-1.64,1.645
		c-0.9,0.931-1.415,1.462-1.415,1.462l-0.078-0.063c0,0,0.433-0.603,1.189-1.658c0.368-0.54,0.883-1.137,1.472-1.828
		c0.298-0.343,0.595-0.727,0.948-1.095c0.359-0.362,0.737-0.743,1.131-1.141c0.769-0.817,1.71-1.593,2.701-2.415
		c0.513-0.39,1.044-0.785,1.594-1.181c0.568-0.369,1.156-0.735,1.759-1.099c0.61-0.351,1.258-0.662,1.897-1
		c0.653-0.312,1.334-0.59,2.013-0.88c0.702-0.234,1.401-0.491,2.119-0.696c0.73-0.165,1.446-0.386,2.189-0.487l1.103-0.194
		l1.109-0.123c0.732-0.12,1.473-0.131,2.202-0.188c1.461-0.042,2.904-0.083,4.302,0.014c1.397,0.084,2.753,0.249,4.006,0.553
		c1.259,0.283,2.407,0.703,3.454,1.108c1.041,0.424,1.968,0.874,2.764,1.316c0.791,0.453,1.479,0.847,2.009,1.23
		c1.076,0.739,1.62,1.255,1.62,1.255L99.965,64.335z"/>
</g>
<g>
	<path d="M99.579,61.61c0,0,0.454-0.517,1.248-1.42c0.394-0.453,0.87-1.003,1.418-1.634c0.533-0.641,1.135-1.363,1.792-2.151
		c0.662-0.782,1.342-1.659,2.08-2.57c0.733-0.916,1.536-1.861,2.304-2.891c0.78-1.02,1.534-2.118,2.185-3.299
		c0.338-0.584,0.621-1.203,0.935-1.808c0.274-0.625,0.544-1.253,0.792-1.889c0.225-0.646,0.481-1.277,0.662-1.931
		c0.217-0.642,0.41-1.286,0.563-1.935c0.356-1.285,0.57-2.575,0.722-3.824c0.034-0.627,0.098-1.243,0.116-1.846
		c-0.023-0.602,0.023-1.195-0.028-1.766c-0.071-1.145-0.223-2.222-0.441-3.203c-0.132-0.484-0.241-0.956-0.376-1.395
		c-0.165-0.428-0.302-0.843-0.44-1.231c-0.287-0.771-0.645-1.4-0.876-1.953c-0.591-1.043-0.929-1.639-0.929-1.639l0.08-0.06
		c0,0,0.438,0.529,1.189,1.492c0.319,0.516,0.737,1.134,1.125,1.894c0.182,0.386,0.387,0.794,0.58,1.235
		c0.171,0.448,0.318,0.933,0.49,1.434c0.301,1.013,0.542,2.142,0.638,3.355c0.112,1.21,0.058,2.496-0.1,3.806
		c-0.209,1.302-0.472,2.639-0.903,3.946c-0.396,1.318-0.963,2.595-1.57,3.841c-0.627,1.237-1.277,2.455-1.959,3.629
		c-0.672,1.18-1.349,2.332-2.008,3.449c-0.674,1.107-1.344,2.172-2.057,3.126c-0.714,0.952-1.438,1.813-2.129,2.587
		c-1.384,1.548-2.652,2.728-3.558,3.528c-0.915,0.792-1.479,1.198-1.479,1.198L99.579,61.61z"/>
</g>
<g>
	<path d="M130.037,90.259c0,0-0.015-0.172-0.074-0.485c-0.043-0.313-0.127-0.771-0.251-1.35c-0.133-0.575-0.273-1.278-0.502-2.065
		c-0.118-0.393-0.255-0.807-0.375-1.249c-0.133-0.438-0.318-0.885-0.482-1.358c-0.153-0.479-0.339-0.967-0.575-1.454
		c-0.214-0.497-0.437-1.01-0.664-1.537c-0.552-1.005-0.983-2.159-1.702-3.201c-0.346-0.525-0.632-1.116-1.054-1.612
		c-0.411-0.505-0.844-1.006-1.285-1.504c-0.887-0.991-1.991-1.8-3.03-2.646l-1.715-1.067c-0.568-0.352-1.096-0.762-1.712-1.018
		c-0.591-0.295-1.177-0.587-1.756-0.876c-0.58-0.284-1.134-0.604-1.741-0.786c-1.184-0.426-2.317-0.859-3.39-1.284
		c-1.116-0.296-2.164-0.606-3.134-0.894c-0.486-0.142-0.952-0.278-1.395-0.407c-0.455-0.079-0.882-0.176-1.286-0.256
		c-0.809-0.17-1.514-0.316-2.094-0.438c-1.164-0.27-1.829-0.424-1.829-0.424l0.01-0.102c0,0,0.68,0.033,1.873,0.125
		c0.597,0.053,1.322,0.117,2.153,0.191c0.416,0.042,0.862,0.074,1.328,0.132c0.458,0.101,0.939,0.207,1.442,0.317
		c1.007,0.221,2.101,0.461,3.25,0.746c1.118,0.391,2.285,0.85,3.486,1.328c0.612,0.211,1.177,0.562,1.763,0.877
		c0.583,0.322,1.173,0.648,1.768,0.978c1.178,0.675,2.224,1.605,3.321,2.421c0.512,0.459,0.989,0.957,1.482,1.429
		c0.494,0.47,1.023,0.901,1.434,1.44c0.441,0.51,0.885,1.009,1.339,1.491c0.452,0.484,0.813,1.031,1.223,1.531
		c0.834,0.993,1.442,2.092,2.049,3.117c0.486,1.082,0.979,2.102,1.256,3.103c0.147,0.498,0.307,0.969,0.418,1.427
		c0.107,0.461,0.186,0.902,0.271,1.313c0.143,0.828,0.243,1.555,0.277,2.155c0.03,0.603,0.047,1.074,0.032,1.398
		c-0.007,0.323-0.027,0.492-0.027,0.492L130.037,90.259z"/>
</g>
</svg>
