<?xml version="1.0" encoding="utf-8"?>
<!-- Generator: Adobe Illustrator 16.0.0, SVG Export Plug-In . SVG Version: 6.00 Build 0)  -->
<!DOCTYPE svg PUBLIC "-//W3C//DTD SVG 1.1//EN" "http://www.w3.org/Graphics/SVG/1.1/DTD/svg11.dtd">
<svg version="1.1" id="Layer_1" xmlns="http://www.w3.org/2000/svg" xmlns:xlink="http://www.w3.org/1999/xlink" x="0px" y="0px"
	 width="118.609px" height="123.208px" viewBox="33.112 1.427 118.609 123.208"
	 enable-background="new 33.112 1.427 118.609 123.208" xml:space="preserve">
<path fill="#FFFFFF" stroke="#000000" stroke-width="3" stroke-miterlimit="10" d="M-123.79-144.941v96.608h-0.008
	c-0.232-6.638-17.103-12-37.869-12s-37.636,5.362-37.868,12h-0.005v-96.608c0-0.045,0-0.096,0.007-0.142
	c0.232-6.638,17.1-12,37.868-12c20.767,0,37.634,5.362,37.867,12C-123.79-145.038-123.79-144.986-123.79-144.941z"/>
<path fill="#FFFFFF" stroke="#000000" stroke-width="3" stroke-miterlimit="10" d="M-315.814-172.901v96.608h-0.008
	c-0.227-6.638-16.758-12-37.117-12c-20.36,0-36.895,5.362-37.117,12h-0.008v-96.608c0-0.045,0-0.096,0.008-0.142
	c0.226-6.638,16.757-12,37.117-12c20.359,0,36.894,5.362,37.117,12C-315.814-172.998-315.814-172.946-315.814-172.901z"/>
<g>
	<path fill="#8BD848" d="M121.494,50.704c0,0-55.994,73.333-88.108,73.93l0.034-2.941c0,0,37.75-7.966,76.356-68.969L121.494,50.704
		z"/>
	<path d="M121.665,50.835c-2.894,3.953-5.903,7.81-8.999,11.602c-3.081,3.805-6.285,7.505-9.514,11.185
		c-6.514,7.311-13.289,14.39-20.363,21.164c-1.788,1.674-3.559,3.364-5.39,4.993c-1.803,1.658-3.671,3.243-5.525,4.845
		c-1.891,1.559-3.769,3.131-5.72,4.618c-0.961,0.76-1.934,1.504-2.932,2.217c-0.997,0.714-1.962,1.472-2.985,2.147l-3.046,2.063
		l-3.128,1.938c-2.121,1.232-4.268,2.429-6.503,3.454c-2.223,1.04-4.519,1.946-6.888,2.618l-0.882,0.271l-0.904,0.19l-1.811,0.375
		c-1.209,0.243-2.457,0.252-3.682,0.39l-0.28,0.03l0.004-0.306l0.031-2.941l0.002-0.213l0.215-0.051
		c2.09-0.501,4.138-1.294,6.161-2.077c2.003-0.852,3.999-1.725,5.929-2.737c1.972-0.931,3.829-2.079,5.727-3.147
		c1.874-1.111,3.677-2.34,5.519-3.505l5.313-3.812c1.734-1.318,3.407-2.72,5.112-4.074l1.273-1.025l1.21-1.101l2.413-2.207
		l2.415-2.201c0.787-0.755,1.543-1.539,2.317-2.308l4.62-4.623l4.413-4.823l2.217-2.401l2.093-2.514l4.187-5.028
		c1.405-1.668,2.646-3.467,3.977-5.195l3.93-5.236l7.34-10.845l0.074-0.113l0.124-0.021l12.255-2.029L121.665,50.835z
		 M120.949,51.021l-11.123,1.992l0.196-0.132l-7.216,10.966l-3.872,5.304c-1.313,1.753-2.536,3.574-3.922,5.269l-4.14,5.104
		l-2.07,2.553l-2.198,2.443l-4.424,4.864c-1.533,1.567-3.118,3.083-4.688,4.613c-0.79,0.759-1.563,1.535-2.365,2.281L72.64,98.43
		l-2.488,2.146l-1.242,1.077l-1.289,1.019c-1.727,1.35-3.421,2.741-5.175,4.054l-5.375,3.785c-1.863,1.155-3.685,2.374-5.581,3.475
		c-1.921,1.054-3.793,2.198-5.778,3.137c-1.943,1.016-3.956,1.892-5.977,2.744c-2.051,0.79-4.092,1.579-6.258,2.094l0.218-0.264
		l-0.038,2.94l-0.274-0.272c1.199-0.135,2.416-0.138,3.604-0.374c1.18-0.276,2.392-0.411,3.534-0.838
		c2.328-0.686,4.587-1.601,6.779-2.65c2.202-1.033,4.319-2.241,6.412-3.483l3.088-1.954l3.008-2.077
		c1.01-0.679,1.964-1.442,2.948-2.161c0.985-0.719,1.946-1.468,2.895-2.235c1.925-1.494,3.781-3.079,5.649-4.647
		c1.83-1.614,3.682-3.202,5.466-4.866c1.812-1.635,3.566-3.331,5.335-5.013c3.499-3.403,6.926-6.879,10.289-10.418
		c1.666-1.783,3.345-3.559,4.983-5.369c1.655-1.793,3.263-3.631,4.901-5.441c3.271-3.623,6.449-7.334,9.636-11.034
		C114.943,58.229,117.976,54.65,120.949,51.021z"/>
</g>
<g>
	<path fill="#6BBA20" d="M112.945,52.555c0,0-19.309,36.75,17.562,40.707c0,0,17.326-2.963,19.993-13.258
		C154.592,64.22,141.466,40.961,112.945,52.555z"/>
	<path d="M113.035,52.65c-0.854,2.103-1.616,4.238-2.223,6.411c-0.627,2.182-1.126,4.392-1.485,6.611
		c-0.683,4.425-0.76,8.987,0.573,13.135c0.675,2.054,1.675,3.988,3.045,5.646c1.353,1.668,3.025,3.087,4.898,4.246
		c1.872,1.161,3.945,2.03,6.089,2.706c1.07,0.346,2.167,0.618,3.271,0.87c1.104,0.247,2.228,0.41,3.353,0.571l-0.116,0.005
		c1.701-0.271,3.403-0.723,5.06-1.24c1.655-0.541,3.282-1.173,4.834-1.954c1.557-0.767,3.029-1.69,4.368-2.751
		c1.348-1.053,2.532-2.289,3.432-3.674c0.437-0.699,0.825-1.421,1.087-2.189c0.298-0.767,0.442-1.502,0.61-2.399
		c0.284-1.651,0.371-3.319,0.314-5.007c-0.046-1.684-0.301-3.355-0.681-4.991c-0.375-1.637-0.924-3.232-1.635-4.746
		c-0.72-1.509-1.517-2.982-2.513-4.315c-0.988-1.336-2.1-2.575-3.326-3.69c-1.247-1.091-2.612-2.04-4.068-2.844
		c-1.471-0.768-3.019-1.405-4.639-1.847c-1.623-0.411-3.285-0.748-4.985-0.822c-1.694-0.145-3.41-0.079-5.126,0.053
		c-0.854,0.097-1.711,0.218-2.566,0.338l-2.556,0.499l-2.536,0.639L113.035,52.65z M112.861,52.461l2.453-1.113l2.486-0.945
		c0.84-0.286,1.697-0.532,2.554-0.78c0.871-0.199,1.741-0.4,2.62-0.575c1.768-0.284,3.564-0.529,5.381-0.498
		c1.816-0.025,3.639,0.208,5.437,0.572c1.793,0.403,3.536,1.03,5.213,1.815c1.65,0.844,3.2,1.876,4.625,3.064
		c2.812,2.42,5.031,5.506,6.453,8.896c0.732,1.688,1.278,3.451,1.639,5.246c0.364,1.794,0.584,3.619,0.583,5.45
		c-0.01,1.82-0.217,3.67-0.618,5.462c-0.198,0.818-0.436,1.809-0.841,2.654c-0.377,0.871-0.891,1.668-1.445,2.414
		c-1.138,1.479-2.525,2.697-4.013,3.713c-1.481,1.036-3.089,1.831-4.701,2.577c-3.258,1.429-6.625,2.499-10.109,3.257l-0.046,0.012
		l-0.07-0.007c-1.149-0.101-2.297-0.25-3.446-0.401c-1.145-0.174-2.292-0.373-3.425-0.646c-2.268-0.534-4.513-1.289-6.625-2.399
		c-1.049-0.56-2.089-1.168-3.028-1.926c-0.944-0.748-1.832-1.578-2.625-2.502c-1.57-1.859-2.729-4.061-3.418-6.373
		c-0.704-2.31-0.991-4.709-0.96-7.075c0.021-2.366,0.332-4.703,0.842-6.979c0.247-1.141,0.55-2.265,0.897-3.374
		c0.35-1.107,0.714-2.209,1.153-3.278c0.872-2.143,1.815-4.253,3.01-6.229L112.861,52.461z"/>
</g>
<g>
	<path fill="#6BBA20" d="M107.3,49.833c0,0,35.05,2.223,36.056-18.974c0,0,2.315-37.359-37.514-26.553
		c0,0-17.079,5.362-12.587,25.041C93.255,29.347,94.691,42.932,107.3,49.833z"/>
	<path d="M107.333,49.712c2.737-0.075,5.467-0.247,8.17-0.591c2.711-0.327,5.405-0.756,8.037-1.391
		c2.628-0.639,5.216-1.422,7.643-2.523c2.43-1.085,4.686-2.505,6.574-4.273c1.855-1.801,3.263-3.998,4.065-6.46
		c0.83-2.462,0.883-5.17,0.754-7.876c-0.139-2.702-0.539-5.409-1.332-8.009c-0.775-2.602-1.969-5.083-3.566-7.267
		c-1.585-2.188-3.628-4.045-5.987-5.323c-2.347-1.3-4.938-2.109-7.586-2.462c-2.657-0.332-5.346-0.301-8.02-0.083
		c-2.669,0.337-5.332,0.761-7.949,1.458l-1.966,0.501c-0.476,0.176-1.128,0.45-1.692,0.743c-1.168,0.57-2.269,1.283-3.308,2.058
		c-2.055,1.584-3.826,3.509-5.083,5.737c-0.277,0.575-0.641,1.111-0.853,1.715l-0.688,1.794c-0.281,1.253-0.66,2.491-0.704,3.801
		c-0.197,1.287-0.075,2.601-0.057,3.912c0.068,1.313,0.362,2.619,0.523,3.934l0.022,0.126c0.05,0.451,0.133,0.981,0.23,1.478
		c0.087,0.505,0.207,1.008,0.325,1.513c0.247,1.004,0.56,1.997,0.907,2.976l0.566,1.454l0.636,1.428
		c0.222,0.473,0.479,0.925,0.717,1.391c0.228,0.473,0.523,0.903,0.793,1.351c0.523,0.911,1.176,1.728,1.793,2.579l1.024,1.194
		c0.324,0.419,0.71,0.774,1.079,1.15c0.379,0.364,0.728,0.768,1.136,1.103l1.221,1.017C105.57,48.542,106.476,49.084,107.333,49.712
		z M107.243,49.938c-0.935-0.525-1.941-0.963-2.829-1.585l-1.349-0.916c-0.454-0.305-0.851-0.679-1.278-1.017
		c-0.421-0.351-0.856-0.683-1.233-1.081l-1.157-1.167c-0.704-0.835-1.455-1.647-2.068-2.559c-0.317-0.447-0.658-0.883-0.935-1.359
		c-0.282-0.47-0.59-0.93-0.857-1.411l-0.781-1.459l-0.684-1.507c-0.422-1.021-0.811-2.058-1.128-3.121
		c-0.156-0.532-0.312-1.066-0.436-1.61c-0.133-0.55-0.236-1.076-0.325-1.687l0.021,0.125c-0.237-1.402-0.597-2.788-0.724-4.217
		c-0.091-1.435-0.242-2.872-0.057-4.323c0.027-1.457,0.41-2.88,0.718-4.311l0.747-2.075c0.253-0.691,0.661-1.314,0.987-1.972
		c1.452-2.562,3.485-4.765,5.845-6.458c1.184-0.838,2.422-1.596,3.744-2.202c0.67-0.315,1.289-0.581,2.114-0.845l2.047-0.47
		c2.716-0.665,5.514-1.028,8.315-1.239c2.816-0.122,5.655-0.022,8.435,0.536c2.773,0.564,5.469,1.582,7.861,3.087
		c2.394,1.502,4.44,3.503,6.056,5.783c1.611,2.286,2.861,4.811,3.74,7.454c0.896,2.638,1.52,5.37,1.866,8.147
		c0.325,2.753,0.483,5.657-0.256,8.504c-0.715,2.833-2.298,5.459-4.394,7.486c-2.113,2.017-4.649,3.471-7.248,4.595
		c-2.627,1.08-5.352,1.821-8.102,2.326c-2.751,0.517-5.529,0.763-8.301,0.87c-2.774,0.047-5.545,0.025-8.296-0.315l-0.03-0.003
		L107.243,49.938z"/>
</g>
<g>
	<path fill="#6BBA20" d="M112.487,49.393c0,0,7.585,31.1-29.692,26.652c0,0-30.209-9.126-19.06-29.57
		C63.734,46.475,86.715,5.666,112.487,49.393z"/>
	<path d="M112.603,49.366c0.587,1.977,0.862,4.028,0.988,6.096c0.051,1.034,0.074,2.077-0.012,3.117
		c-0.059,1.042-0.201,2.08-0.383,3.117c-0.104,0.515-0.24,1.023-0.361,1.539l-0.476,1.517c-0.37,0.995-0.792,1.979-1.323,2.911
		c-0.285,0.452-0.548,0.923-0.858,1.363c-0.326,0.425-0.635,0.87-0.981,1.282l-1.096,1.191l-1.21,1.077
		c-0.86,0.65-1.737,1.281-2.688,1.787c-0.457,0.286-0.943,0.507-1.433,0.724c-0.489,0.216-0.966,0.47-1.476,0.623l-1.514,0.515
		c-0.511,0.145-1.026,0.256-1.541,0.387c-1.021,0.293-2.072,0.377-3.111,0.546c-1.043,0.098-2.088,0.181-3.131,0.217
		c-1.041-0.022-2.083,0-3.118-0.059c-1.03-0.081-2.065-0.132-3.092-0.242l-3.066-0.396l-0.072-0.01l-0.038-0.016
		c-2.122-0.768-4.114-1.695-6.097-2.688c-1.964-1.015-3.898-2.093-5.72-3.357c-1.833-1.238-3.569-2.64-5.13-4.236
		c-1.553-1.597-2.925-3.427-3.849-5.518c-0.929-2.08-1.403-4.401-1.304-6.714c0.075-2.317,0.726-4.575,1.634-6.665l0.738-1.567
		c0.283-0.511,0.569-0.986,0.866-1.466c0.593-0.954,1.226-1.879,1.891-2.78c1.324-1.808,2.761-3.536,4.335-5.152
		c1.574-1.614,3.283-3.119,5.156-4.431c1.888-1.285,3.923-2.421,6.147-3.146c2.22-0.724,4.585-1.055,6.933-0.94
		c2.363,0.064,4.638,0.808,6.741,1.721l1.553,0.765c0.507,0.269,0.97,0.603,1.457,0.906c0.987,0.583,1.846,1.327,2.732,2.03
		c1.74,1.443,3.271,3.091,4.699,4.8c0.746,0.829,1.357,1.764,2.035,2.638c0.69,0.87,1.273,1.812,1.865,2.748
		c1.224,1.839,2.241,3.803,3.297,5.729l0.009,0.015L112.603,49.366z M112.373,49.438c-1.302-1.764-2.46-3.612-3.853-5.288
		c-1.318-1.737-2.739-3.385-4.219-4.956c-1.502-1.556-3.097-3-4.794-4.282c-0.865-0.615-1.704-1.27-2.64-1.754
		c-0.461-0.25-0.9-0.545-1.367-0.771l-1.427-0.636c-1.924-0.75-3.932-1.304-5.973-1.326c-2.033-0.059-4.064,0.276-6.007,0.935
		c-1.956,0.627-3.798,1.645-5.531,2.817c-1.744,1.166-3.382,2.526-4.905,4.013c-1.525,1.49-2.941,3.104-4.251,4.803
		c-0.665,0.843-1.273,1.726-1.887,2.603c-0.301,0.44-0.599,0.892-0.868,1.329l-0.722,1.38c-0.918,1.885-1.572,3.888-1.8,5.951
		c-0.222,2.061,0.041,4.175,0.793,6.146c0.749,1.964,1.905,3.808,3.362,5.396c1.442,1.603,3.129,2.987,4.915,4.219
		c1.8,1.214,3.702,2.289,5.688,3.175c1.967,0.914,4.041,1.657,6.092,2.243l-0.108-0.024l3.021,0.173
		c1.006,0.038,2.012,0.016,3.013,0.024c1.003-0.013,1.999-0.104,2.995-0.152c0.988-0.109,1.977-0.199,2.957-0.336
		c0.965-0.207,1.955-0.304,2.896-0.575c0.473-0.124,0.952-0.229,1.42-0.366l1.379-0.474c0.472-0.133,0.9-0.358,1.349-0.543
		c0.443-0.188,0.891-0.378,1.303-0.627c0.862-0.438,1.648-0.988,2.427-1.551l1.101-0.923l1.014-1.02
		c0.324-0.354,0.61-0.742,0.921-1.111c0.291-0.38,0.54-0.797,0.816-1.193c0.258-0.408,0.472-0.841,0.721-1.262
		c0.224-0.431,0.415-0.879,0.622-1.318l0.522-1.372c0.138-0.473,0.291-0.937,0.419-1.417
		C112.756,57.549,112.917,53.447,112.373,49.438z"/>
</g>
<g>
	<path d="M112.908,52.601c0,0-0.748-0.469-2.116-1.165c-1.358-0.715-3.348-1.633-5.803-2.521c-1.229-0.441-2.571-0.876-4.017-1.255
		c-1.438-0.397-2.972-0.793-4.593-1.035c-1.617-0.297-3.324-0.359-5.048-0.288c-1.72,0.137-3.465,0.369-5.143,0.872
		c-1.688,0.456-3.313,1.09-4.889,1.748c-0.767,0.382-1.544,0.716-2.285,1.105c-0.727,0.417-1.46,0.799-2.15,1.229
		c-0.683,0.442-1.355,0.876-2.013,1.301c-0.628,0.469-1.251,0.914-1.863,1.345c-0.608,0.431-1.147,0.924-1.709,1.35
		c-0.563,0.423-1.085,0.863-1.565,1.309c-0.988,0.86-1.869,1.677-2.627,2.433c-0.776,0.734-1.437,1.396-1.958,1.963
		c-1.074,1.112-1.689,1.747-1.689,1.747l-0.093-0.076c0,0,0.517-0.719,1.419-1.979c0.439-0.645,1.054-1.358,1.757-2.182
		c0.355-0.409,0.71-0.869,1.132-1.307c0.428-0.433,0.879-0.887,1.35-1.361c0.918-0.976,2.041-1.902,3.224-2.884
		c0.613-0.465,1.247-0.938,1.903-1.41c0.678-0.44,1.38-0.877,2.1-1.311c0.729-0.419,1.501-0.791,2.264-1.194
		c0.779-0.372,1.593-0.705,2.403-1.051c0.838-0.279,1.672-0.585,2.529-0.831c0.871-0.197,1.726-0.461,2.613-0.581l1.315-0.232
		l1.323-0.147c0.874-0.143,1.759-0.156,2.63-0.224c1.744-0.05,3.466-0.099,5.134,0.017c1.668,0.101,3.287,0.297,4.782,0.66
		c1.503,0.338,2.873,0.839,4.123,1.323c1.242,0.506,2.349,1.043,3.299,1.571c0.944,0.541,1.765,1.011,2.397,1.468
		c1.284,0.882,1.934,1.498,1.934,1.498L112.908,52.601z"/>
</g>
<g>
	<path d="M112.449,49.349c0,0,0.541-0.617,1.489-1.695c0.47-0.541,1.038-1.197,1.692-1.95c0.636-0.765,1.354-1.627,2.139-2.567
		c0.79-0.934,1.602-1.98,2.482-3.068c0.875-1.093,1.834-2.221,2.751-3.451c0.93-1.217,1.83-2.527,2.607-3.938
		c0.403-0.697,0.741-1.436,1.115-2.158c0.328-0.746,0.65-1.495,0.947-2.254c0.268-0.772,0.573-1.525,0.79-2.305
		c0.259-0.767,0.488-1.535,0.671-2.31c0.425-1.534,0.681-3.074,0.861-4.565c0.041-0.748,0.118-1.483,0.139-2.203
		c-0.027-0.718,0.028-1.427-0.032-2.108c-0.086-1.367-0.267-2.652-0.527-3.823c-0.158-0.578-0.287-1.141-0.449-1.665
		c-0.196-0.511-0.359-1.006-0.524-1.469c-0.343-0.92-0.77-1.671-1.046-2.331c-0.705-1.245-1.108-1.957-1.108-1.957l0.096-0.071
		c0,0,0.521,0.631,1.42,1.781c0.38,0.616,0.879,1.354,1.343,2.26c0.217,0.461,0.461,0.948,0.69,1.475
		c0.204,0.535,0.381,1.113,0.586,1.712c0.358,1.208,0.646,2.556,0.761,4.004c0.134,1.444,0.07,2.979-0.119,4.542
		c-0.249,1.554-0.563,3.15-1.078,4.71c-0.472,1.573-1.149,3.097-1.873,4.584c-0.748,1.477-1.524,2.93-2.338,4.332
		c-0.803,1.409-1.611,2.783-2.396,4.117c-0.806,1.321-1.605,2.593-2.456,3.731c-0.853,1.136-1.718,2.164-2.541,3.088
		c-1.652,1.847-3.166,3.256-4.247,4.21c-1.093,0.946-1.766,1.431-1.766,1.431L112.449,49.349z"/>
</g>
<g>
	<path d="M148.802,83.544c0,0-0.018-0.205-0.088-0.578c-0.052-0.373-0.152-0.921-0.299-1.611c-0.158-0.687-0.326-1.525-0.599-2.465
		c-0.143-0.47-0.306-0.964-0.448-1.491c-0.158-0.522-0.38-1.056-0.575-1.62c-0.183-0.572-0.405-1.154-0.687-1.737
		c-0.256-0.592-0.521-1.205-0.793-1.834c-0.658-1.198-1.174-2.576-2.032-3.82c-0.412-0.626-0.754-1.332-1.257-1.924
		c-0.491-0.604-1.008-1.201-1.534-1.796c-1.059-1.182-2.377-2.148-3.617-3.159l-2.047-1.273c-0.679-0.419-1.308-0.909-2.042-1.214
		c-0.707-0.352-1.406-0.702-2.098-1.047c-0.692-0.338-1.353-0.72-2.078-0.937c-1.412-0.508-2.765-1.026-4.046-1.533
		c-1.332-0.354-2.583-0.724-3.74-1.067c-0.581-0.17-1.137-0.332-1.665-0.487c-0.543-0.093-1.054-0.21-1.536-0.306
		c-0.965-0.203-1.807-0.376-2.499-0.522c-1.39-0.322-2.182-0.506-2.182-0.506l0.012-0.122c0,0,0.811,0.039,2.235,0.149
		c0.712,0.063,1.577,0.14,2.569,0.227c0.496,0.05,1.029,0.087,1.585,0.158c0.547,0.121,1.121,0.247,1.721,0.377
		c1.203,0.265,2.508,0.551,3.879,0.891c1.336,0.467,2.728,1.015,4.161,1.585c0.731,0.251,1.406,0.671,2.105,1.046
		c0.694,0.385,1.4,0.774,2.109,1.168c1.406,0.807,2.655,1.917,3.964,2.89c0.611,0.548,1.182,1.143,1.77,1.706
		c0.59,0.562,1.222,1.076,1.711,1.719c0.526,0.609,1.057,1.204,1.599,1.78c0.539,0.578,0.971,1.23,1.46,1.827
		c0.995,1.185,1.722,2.497,2.445,3.721c0.581,1.292,1.169,2.509,1.499,3.703c0.176,0.595,0.367,1.156,0.499,1.703
		c0.128,0.551,0.223,1.077,0.324,1.566c0.17,0.989,0.29,1.857,0.331,2.574c0.035,0.719,0.056,1.281,0.037,1.668
		c-0.007,0.386-0.031,0.586-0.031,0.586L148.802,83.544z"/>
</g>
</svg>
