<?xml version="1.0" encoding="utf-8"?>
<!-- Generator: Adobe Illustrator 16.0.0, SVG Export Plug-In . SVG Version: 6.00 Build 0)  -->
<!DOCTYPE svg PUBLIC "-//W3C//DTD SVG 1.1//EN" "http://www.w3.org/Graphics/SVG/1.1/DTD/svg11.dtd">
<svg version="1.1" id="Layer_1" xmlns="http://www.w3.org/2000/svg" xmlns:xlink="http://www.w3.org/1999/xlink" x="0px" y="0px"
	 width="117px" height="151px" viewBox="0 0 117 151" enable-background="new 0 0 117 151" xml:space="preserve">
<linearGradient id="SVGID_1_" gradientUnits="userSpaceOnUse" x1="-208.1567" y1="46.9565" x2="-163.6794" y2="115.9214">
	<stop  offset="0" style="stop-color:#FFFFFF"/>
	<stop  offset="1" style="stop-color:#000000"/>
</linearGradient>
<path fill="url(#SVGID_1_)" d="M-169.01,70.95c0,0,9.51,22.05,4.2,25.91C-168.06,99.22-176,94.12-182,89.8v60.3
	c0,0.5,0.05,0.9-0.5,0.9h-12c-0.55,0-1.5-0.4-1.5-0.9V90.79c-5,4.06-12.35,8.25-15.35,6.07c-5.32-3.86,4.565-25.91,4.565-25.91
	S-227.583,58.85-225.553,52.6c2.04-6.25,26.051-3.779,26.051-3.779s5.076-23.58,11.656-23.58c6.57,0,11.638,23.58,11.638,23.58
	s23.994-2.471,26.024,3.779C-148.154,58.85-169.01,70.95-169.01,70.95z"/>
<path fill="#6D5C32" stroke="#000000" stroke-width="2" stroke-miterlimit="10" d="M-188,147.103c0,0.496,0.052,0.897-0.5,0.897h-12
	c-0.552,0-1.5-0.401-1.5-0.897V69.897c0-0.496,0.948-0.897,1.5-0.897h12c0.552,0,0.5,0.401,0.5,0.897V147.103z"/>
<path fill="#E9F79A" stroke="#000000" stroke-width="2" stroke-miterlimit="10" d="M-193.833,22.244
	c6.573,0,11.635,23.576,11.635,23.576s23.985-2.47,26.017,3.78c2.031,6.251-18.826,18.352-18.826,18.352s9.761,22.048,4.444,25.911
	c-5.317,3.862-23.27-12.233-23.27-12.233s-17.953,16.096-23.27,12.233c-5.317-3.863,4.444-25.911,4.444-25.911
	s-20.857-12.101-18.826-18.352c2.031-6.25,26.017-3.78,26.017-3.78S-200.406,22.244-193.833,22.244z"/>
<line fill="none" stroke="#000000" stroke-width="2" stroke-miterlimit="10" x1="-154" y1="58" x2="-136" y2="58"/>
<line fill="none" stroke="#000000" stroke-width="2" stroke-miterlimit="10" x1="-159.081" y1="37.88" x2="-143.492" y2="28.88"/>
<line fill="none" stroke="#000000" stroke-width="2" stroke-miterlimit="10" x1="-173.973" y1="23.247" x2="-164.972" y2="7.658"/>
<line fill="none" stroke="#000000" stroke-width="2" stroke-miterlimit="10" x1="-195" y1="18" x2="-195" y2="0"/>
<line fill="none" stroke="#000000" stroke-width="2" stroke-miterlimit="10" x1="-214.586" y1="23.739" x2="-223.586" y2="8.151"/>
<line fill="none" stroke="#000000" stroke-width="2" stroke-miterlimit="10" x1="-229.113" y1="38.753" x2="-244.702" y2="29.753"/>
<line fill="none" stroke="#000000" stroke-width="2" stroke-miterlimit="10" x1="-235" y1="59" x2="-253" y2="59"/>
<line fill="none" stroke="#000000" stroke-width="2" stroke-miterlimit="10" x1="-228.728" y1="79.246" x2="-244.317" y2="88.246"/>
<line fill="none" stroke="#000000" stroke-width="2" stroke-miterlimit="10" x1="-158.465" y1="78.388" x2="-142.876" y2="87.388"/>
<path fill="#FF0000" d="M-97.036,39.611L-97.893,51.2l-5.169,1.578l3.096-36.955l6.03-1.841l23.267,28.906l-5.341,1.631
	l-7.299-9.099L-97.036,39.611z M-85.357,32.413l-6.685-8.323c-1.518-1.888-2.69-3.667-3.846-5.397l-0.114,0.035
	c0.022,2.13,0.002,4.327-0.133,6.559l-0.881,10.687L-85.357,32.413z"/>
<path fill="#FF6B06" d="M-48.087,36.154c2.519,1.196,6.204,3.463,9.688,6.116c4.967,3.783,7.512,7.073,8.433,10.84
	c0.868,3.007,0.327,6.206-1.978,9.23c-2.826,3.713-7.759,5.096-12.944,3.495l-0.087,0.114c2.958,3.697,4.936,9.982,0.587,15.692
	c-2.521,3.311-5.749,4.823-9.124,5.229c-4.554,0.412-9.763-1.751-16.043-6.533c-3.427-2.609-5.878-4.84-7.361-6.328L-48.087,36.154z
	 M-55.12,55.696l4.51,3.434c5.253,4.002,10.422,3.61,13.249-0.102c3.435-4.511,1.357-8.889-3.667-12.716
	c-2.284-1.74-3.726-2.57-4.656-3.006L-55.12,55.696z M-69.166,74.139c0.84,0.91,2.223,2.055,3.994,3.402
	c5.14,3.914,11.314,5.639,15.575,0.043c4-5.253,1.141-10.857-4.284-14.988l-4.111-3.13L-69.166,74.139z"/>
<path fill="#86E805" d="M-28.119,133.473c-1.626,0.813-4.878,1.626-9.044,1.626c-9.653,0-16.919-6.098-16.919-17.327
	c0-10.721,7.266-17.986,17.885-17.986c4.269,0,6.961,0.915,8.129,1.522l-1.067,3.609c-1.677-0.813-4.065-1.423-6.911-1.423
	c-8.027,0-13.363,5.132-13.363,14.126c0,8.383,4.827,13.77,13.16,13.77c2.693,0,5.437-0.56,7.215-1.424L-28.119,133.473z"/>
<g>
	<path fill="#072DD1" d="M-98.833,98.477c2.7-0.407,5.908-0.714,9.422-0.714c6.367,0,10.899,1.477,13.903,4.278
		c3.056,2.801,4.838,6.774,4.838,12.325c0,5.602-1.731,10.186-4.939,13.343c-3.209,3.208-8.506,4.939-15.177,4.939
		c-3.158,0-5.806-0.152-8.047-0.407V98.477z M-94.402,128.83c1.121,0.203,2.751,0.254,4.482,0.254
		c9.473,0,14.616-5.297,14.616-14.566c0.051-8.097-4.532-13.24-13.903-13.24c-2.292,0-4.023,0.203-5.195,0.458V128.83z"/>
</g>
<rect x="-129" fill="none" width="117" height="151"/>
<g>
	<rect x="-197" y="284" fill="#CCCC66" stroke="#000000" stroke-width="2" stroke-miterlimit="10" width="10" height="18"/>
	<path fill="#CCCC66" stroke="#000000" stroke-width="2.1716" stroke-miterlimit="10" d="M-156.351,205.208
		c19.092,19.092,19.354,50.749,0,70.103c-19.36,19.361-51.011,19.092-70.103,0l5.798-5.798
		c17.048,17.048,43.147,16.956,59.305,0.799s16.25-42.257-0.799-59.305L-156.351,205.208z"/>
	
		<rect x="-198.995" y="184.693" transform="matrix(0.7072 0.7071 -0.7071 0.7072 110.4571 206.4437)" fill="#CCCC66" stroke="#000000" stroke-width="2.1716" stroke-miterlimit="10" width="10" height="103.751"/>
	<g>
		<circle fill="#99CCFF" stroke="#000000" stroke-width="2" stroke-miterlimit="10" cx="-192.052" cy="239.953" r="36.75"/>
		<path fill="#33CC00" stroke="#000000" stroke-width="2" stroke-miterlimit="10" d="M-197.414,226.59c0,0-0.598-8.701,4.185-7.506
			c0,0,2.391,0.221,5.379,3.697c0,0,6.576-3.697,8.37-7.283c0,0,6.576-2.391,7.173,0c0,0-1.196,9.564-7.771,17.336
			c0,0-4.783,4.781-0.598,13.151c0,0-5.38,9.894-10.162,11.222c0,0-9.564,1.93-10.76-3.451c0,0,3.885-4.34,4.184-10.76
			c0,0-2.391-3.498-4.184-5.934C-201.598,237.063-204.35,232.836-197.414,226.59z"/>
		<path fill="#33CC00" stroke="#000000" stroke-width="2" stroke-miterlimit="10" d="M-200.402,265c0,0,1.314-2.451,5.439-1.121
			c4.125,1.33,2.451,2.287,0,4.773c-2.451,2.484-2.451,1.354-5.439,1.656c-2.989,0.305-2.392-5.309-2.392-5.309H-200.402z"/>
	</g>
	<path fill="#CCCC66" stroke="#000000" stroke-width="2" stroke-miterlimit="10" d="M-160.427,306c0-4-14.215-8.25-31.75-8.25
		s-31.75,4.25-31.75,8.25H-160.427z"/>
</g>
<g>
	<g>
		<g>
			<path fill="#FFFFFF" stroke="#281502" stroke-miterlimit="10" d="M110.5,132.427c0,5.563-4.51,10.073-10.073,10.073H27.573
				c-5.563,0-10.073-4.51-10.073-10.073V32.573c0-5.563,4.51-10.073,10.073-10.073h72.854c5.563,0,10.073,4.51,10.073,10.073
				V132.427z"/>
			<path fill="#FCFCFC" stroke="#281502" stroke-miterlimit="10" d="M107.5,129.427c0,5.563-4.51,10.073-10.073,10.073H24.573
				c-5.563,0-10.073-4.51-10.073-10.073V29.573c0-5.563,4.51-10.073,10.073-10.073h72.854c5.563,0,10.073,4.51,10.073,10.073
				V129.427z"/>
			<path fill="#FAFAFA" stroke="#281502" stroke-miterlimit="10" d="M105.5,126.427c0,5.563-4.51,10.073-10.073,10.073H22.573
				c-5.563,0-10.073-4.51-10.073-10.073V26.573c0-5.563,4.51-10.073,10.073-10.073h72.854c5.563,0,10.073,4.51,10.073,10.073
				V126.427z"/>
			<path fill="#F7F7F7" stroke="#281502" stroke-miterlimit="10" d="M103.5,123.427c0,5.563-4.51,10.073-10.073,10.073H20.573
				c-5.563,0-10.073-4.51-10.073-10.073V23.573c0-5.563,4.51-10.073,10.073-10.073h72.854c5.563,0,10.073,4.51,10.073,10.073
				V123.427z"/>
			<path fill="#F5F5F5" stroke="#281502" stroke-miterlimit="10" d="M101.5,121.427c0,5.563-4.51,10.073-10.073,10.073H18.573
				c-5.563,0-10.073-4.51-10.073-10.073V21.573C8.5,16.01,13.01,11.5,18.573,11.5h72.854c5.563,0,10.073,4.51,10.073,10.073V121.427
				z"/>
			<path fill="#F2F2F2" stroke="#281502" stroke-miterlimit="10" d="M99.5,118.427c0,5.563-4.51,10.073-10.073,10.073H16.573
				c-5.563,0-10.073-4.51-10.073-10.073V18.573C6.5,13.01,11.01,8.5,16.573,8.5h72.854C94.99,8.5,99.5,13.01,99.5,18.573V118.427z"
				/>
		</g>
		<path fill="#CCA8F4" stroke="#664806" stroke-miterlimit="10" d="M100.5,118.427c0,5.563-4.51,10.073-10.073,10.073H16.573
			c-5.563,0-10.073-4.51-10.073-10.073V18.573C6.5,13.01,11.01,8.5,16.573,8.5h73.854c5.563,0,10.073,4.51,10.073,10.073V118.427z"
			/>
	</g>
	<path fill="#E1A7CB" d="M88,43.884C88,47.814,84.814,51,80.885,51h-56.77C20.186,51,17,47.814,17,43.884v-7.769
		C17,32.186,20.186,29,24.115,29h56.77C84.814,29,88,32.186,88,36.116V43.884z"/>
</g>
</svg>
