<?xml version="1.0" encoding="utf-8"?>
<!-- Generator: Adobe Illustrator 16.0.0, SVG Export Plug-In . SVG Version: 6.00 Build 0)  -->
<!DOCTYPE svg PUBLIC "-//W3C//DTD SVG 1.1//EN" "http://www.w3.org/Graphics/SVG/1.1/DTD/svg11.dtd">
<svg version="1.1" id="Layer_1" xmlns="http://www.w3.org/2000/svg" xmlns:xlink="http://www.w3.org/1999/xlink" x="0px" y="0px"
	 width="117px" height="151px" viewBox="0 0 117 151" enable-background="new 0 0 117 151" xml:space="preserve">
<linearGradient id="SVGID_1_" gradientUnits="userSpaceOnUse" x1="-208.1372" y1="103.1396" x2="-163.6595" y2="34.1741" gradientTransform="matrix(1 0 0 -1 -0.02 150.0947)">
	<stop  offset="0" style="stop-color:#FFFFFF"/>
	<stop  offset="1" style="stop-color:#000000"/>
</linearGradient>
<path fill="url(#SVGID_1_)" d="M-169.01,70.95c0,0,9.51,22.05,4.2,25.909C-168.06,99.22-176,94.12-182,89.8v60.3
	c0,0.5,0.05,0.9-0.5,0.9h-12c-0.55,0-1.5-0.4-1.5-0.9V90.79c-5,4.06-12.35,8.25-15.35,6.069c-5.32-3.859,4.565-25.909,4.565-25.909
	s-20.798-12.1-18.768-18.35c2.04-6.25,26.051-3.779,26.051-3.779s5.076-23.58,11.656-23.58c6.57,0,11.638,23.58,11.638,23.58
	s23.994-2.471,26.024,3.779C-148.154,58.85-169.01,70.95-169.01,70.95z"/>
<path fill="#6D5C32" stroke="#000000" stroke-width="2" stroke-miterlimit="10" d="M-188,147.104c0,0.496,0.052,0.896-0.5,0.896h-12
	c-0.552,0-1.5-0.4-1.5-0.896V69.897c0-0.496,0.948-0.897,1.5-0.897h12c0.552,0,0.5,0.401,0.5,0.897V147.104z"/>
<path fill="#E9F79A" stroke="#000000" stroke-width="2" stroke-miterlimit="10" d="M-193.833,22.244
	c6.573,0,11.635,23.576,11.635,23.576s23.985-2.47,26.017,3.78c2.031,6.251-18.826,18.352-18.826,18.352s9.761,22.048,4.444,25.911
	c-5.317,3.861-23.27-12.233-23.27-12.233s-17.953,16.097-23.27,12.233s4.444-25.911,4.444-25.911s-20.857-12.101-18.826-18.352
	c2.031-6.25,26.017-3.78,26.017-3.78S-200.406,22.244-193.833,22.244z"/>
<line fill="none" stroke="#000000" stroke-width="2" stroke-miterlimit="10" x1="-154" y1="58" x2="-136" y2="58"/>
<line fill="none" stroke="#000000" stroke-width="2" stroke-miterlimit="10" x1="-159.081" y1="37.88" x2="-143.492" y2="28.88"/>
<line fill="none" stroke="#000000" stroke-width="2" stroke-miterlimit="10" x1="-173.973" y1="23.247" x2="-164.972" y2="7.658"/>
<line fill="none" stroke="#000000" stroke-width="2" stroke-miterlimit="10" x1="-195" y1="18" x2="-195" y2="0"/>
<line fill="none" stroke="#000000" stroke-width="2" stroke-miterlimit="10" x1="-214.586" y1="23.739" x2="-223.586" y2="8.151"/>
<line fill="none" stroke="#000000" stroke-width="2" stroke-miterlimit="10" x1="-229.113" y1="38.753" x2="-244.702" y2="29.753"/>
<line fill="none" stroke="#000000" stroke-width="2" stroke-miterlimit="10" x1="-235" y1="59" x2="-253" y2="59"/>
<line fill="none" stroke="#000000" stroke-width="2" stroke-miterlimit="10" x1="-228.728" y1="79.246" x2="-244.317" y2="88.246"/>
<line fill="none" stroke="#000000" stroke-width="2" stroke-miterlimit="10" x1="-158.465" y1="78.389" x2="-142.876" y2="87.389"/>
<path fill="#FF0000" d="M-97.036,39.611L-97.893,51.2l-5.169,1.578l3.096-36.955l6.03-1.841l23.267,28.906l-5.341,1.631
	l-7.299-9.099L-97.036,39.611z M-85.357,32.413l-6.685-8.323c-1.518-1.888-2.69-3.667-3.846-5.397l-0.114,0.035
	c0.022,2.13,0.002,4.327-0.133,6.559l-0.881,10.687L-85.357,32.413z"/>
<path fill="#FF6B06" d="M-48.087,36.154c2.519,1.196,6.204,3.463,9.688,6.116c4.967,3.783,7.512,7.073,8.433,10.84
	c0.868,3.007,0.327,6.206-1.978,9.23c-2.826,3.713-7.759,5.096-12.944,3.495l-0.087,0.114c2.958,3.697,4.936,9.982,0.587,15.691
	c-2.521,3.312-5.749,4.823-9.124,5.229c-4.554,0.412-9.763-1.751-16.043-6.533c-3.427-2.608-5.878-4.84-7.361-6.328L-48.087,36.154z
	 M-55.12,55.696l4.51,3.434c5.253,4.002,10.422,3.61,13.249-0.102c3.435-4.511,1.357-8.889-3.667-12.716
	c-2.284-1.74-3.726-2.57-4.656-3.006L-55.12,55.696z M-69.166,74.139c0.84,0.91,2.223,2.054,3.994,3.402
	c5.14,3.914,11.314,5.639,15.575,0.043c4-5.253,1.141-10.857-4.284-14.988l-4.111-3.13L-69.166,74.139z"/>
<path fill="#86E805" d="M-28.119,133.473c-1.626,0.813-4.878,1.627-9.044,1.627c-9.653,0-16.919-6.099-16.919-17.328
	c0-10.721,7.266-17.985,17.885-17.985c4.269,0,6.961,0.915,8.129,1.522l-1.067,3.608c-1.677-0.813-4.065-1.423-6.911-1.423
	c-8.027,0-13.363,5.132-13.363,14.126c0,8.383,4.827,13.771,13.16,13.771c2.693,0,5.437-0.561,7.215-1.425L-28.119,133.473z"/>
<g>
	<path fill="#072DD1" d="M-98.833,98.477c2.7-0.406,5.908-0.713,9.422-0.713c6.367,0,10.899,1.477,13.903,4.277
		c3.056,2.801,4.838,6.773,4.838,12.325c0,5.602-1.731,10.186-4.939,13.343c-3.209,3.208-8.506,4.939-15.177,4.939
		c-3.158,0-5.806-0.152-8.047-0.407V98.477z M-94.402,128.83c1.121,0.203,2.751,0.254,4.482,0.254
		c9.473,0,14.616-5.297,14.616-14.566c0.051-8.097-4.532-13.24-13.903-13.24c-2.292,0-4.023,0.203-5.195,0.459V128.83z"/>
</g>
<rect x="-129" fill="none" width="117" height="151"/>
<g>
	<g>
		<rect x="50" y="106" fill="#EAC975" width="10" height="18"/>
		<path fill="#3F2505" d="M49.953,105.951L60,105.808l0.19-0.003L60.193,106l0.207,18l0.004,0.387L60,124.4
			c-1.667,0.054-3.333,0.096-5,0.105c-1.667,0.017-3.333,0.034-5,0.016l-0.525-0.006L49.479,124l0.031-4.5l0.088-4.5
			c0.021-1.5,0.094-3,0.138-4.5c0.052-1.5,0.126-3,0.214-4.5L49.953,105.951z M50.052,106.051c0.087,1.483,0.16,2.966,0.211,4.449
			c0.044,1.5,0.117,3,0.138,4.5l0.088,4.5l0.031,4.5L50,123.479c1.667-0.019,3.333-0.001,5,0.016c1.667,0.01,3.333,0.052,5,0.105
			l-0.4,0.4l0.207-18L60,106.192L50.052,106.051z"/>
	</g>
	<g>
		<path fill="#EAC975" d="M90.648,27.208c19.093,19.092,19.354,50.749,0,70.103c-19.359,19.361-51.01,19.092-70.103,0l5.798-5.797
			c17.048,17.047,43.147,16.955,59.304,0.799c16.158-16.157,16.25-42.257-0.799-59.306L90.648,27.208z"/>
		<path fill="#3F2505" d="M90.65,27.136l3.302,3.638c0.986,1.286,1.933,2.607,2.901,3.91c0.864,1.371,1.664,2.785,2.5,4.177
			c0.727,1.449,1.382,2.936,2.076,4.403c0.577,1.516,1.088,3.058,1.636,4.587c0.418,1.567,0.787,3.15,1.183,4.725l0.72,4.819
			l0.246,4.868c-0.076,1.622-0.118,3.249-0.224,4.869c-0.232,1.608-0.418,3.226-0.691,4.826c-0.389,1.578-0.718,3.174-1.156,4.737
			c-0.541,1.533-1.018,3.092-1.614,4.604c-0.689,1.473-1.315,2.979-2.06,4.424c-0.831,1.397-1.61,2.83-2.487,4.199
			c-0.965,1.31-1.897,2.646-2.891,3.935l-3.273,3.643l-3.602,3.264c-1.284,1-2.622,1.944-3.933,2.918
			c-1.367,0.886-2.797,1.671-4.193,2.511c-1.443,0.751-2.948,1.385-4.42,2.083c-1.512,0.604-3.071,1.089-4.605,1.639
			c-1.565,0.446-3.163,0.784-4.743,1.181c-1.604,0.282-3.225,0.476-4.837,0.716c-1.625,0.113-3.256,0.163-4.885,0.247l-4.887-0.225
			l-4.843-0.702c-1.583-0.39-3.175-0.753-4.752-1.167c-1.539-0.542-3.091-1.05-4.618-1.623c-1.478-0.691-2.977-1.343-4.438-2.068
			c-1.403-0.833-2.83-1.632-4.213-2.496c-1.315-0.967-2.648-1.913-3.947-2.9L20.257,97.6l-0.304-0.272l0.304-0.306l5.784-5.812
			l0.288-0.289l0.32,0.289l3.031,2.739c1.054,0.86,2.177,1.635,3.26,2.457c1.108,0.789,2.318,1.425,3.47,2.145
			c0.569,0.377,1.202,0.634,1.813,0.933l1.843,0.875c0.603,0.318,1.254,0.521,1.892,0.756l1.918,0.69
			c0.631,0.259,1.299,0.396,1.956,0.567l1.975,0.502c0.652,0.197,1.333,0.256,2.002,0.37l2.014,0.313
			c1.345,0.187,2.709,0.184,4.063,0.286c1.356,0.032,2.714-0.087,4.071-0.121c1.351-0.124,2.691-0.357,4.038-0.529
			c1.328-0.28,2.643-0.625,3.965-0.934l3.85-1.334l3.69-1.724c1.166-0.697,2.346-1.371,3.5-2.085l3.274-2.425l3.012-2.71
			l2.781-3.046l2.427-3.25c0.72-1.15,1.4-2.329,2.104-3.493l1.743-3.69l1.355-3.852c0.315-1.324,0.667-2.641,0.954-3.972
			c0.18-1.35,0.419-2.694,0.55-4.049c0.041-1.361,0.167-2.724,0.141-4.086c-0.097-1.359-0.088-2.729-0.269-4.081l-0.304-2.024
			c-0.111-0.673-0.171-1.356-0.367-2.012l-0.499-1.986c-0.172-0.661-0.309-1.332-0.566-1.966l-0.69-1.93
			c-0.233-0.642-0.437-1.296-0.755-1.903l-0.875-1.854c-0.3-0.614-0.557-1.251-0.934-1.824c-0.724-1.159-1.351-2.382-2.137-3.501
			c-0.818-1.095-1.591-2.23-2.449-3.296l-2.736-3.069l-0.085-0.096l0.085-0.084L90.65,27.136z M90.646,27.281l-5.707,5.815v-0.18
			l2.811,3.037c0.885,1.057,1.684,2.186,2.531,3.277c0.812,1.116,1.479,2.333,2.216,3.501c0.386,0.576,0.652,1.217,0.961,1.835
			l0.903,1.868c0.327,0.611,0.54,1.271,0.783,1.919l0.718,1.948c0.267,0.641,0.412,1.319,0.592,1.987l0.525,2.009
			c0.205,0.664,0.272,1.356,0.392,2.038l0.328,2.052c0.196,1.371,0.202,2.762,0.312,4.144c0.04,1.384-0.073,2.77-0.104,4.156
			c-0.119,1.38-0.35,2.751-0.521,4.127c-0.278,1.358-0.624,2.704-0.935,4.057l-1.345,3.942l-1.744,3.784
			c-0.706,1.196-1.391,2.406-2.117,3.592c-0.826,1.126-1.64,2.269-2.479,3.381l-2.753,3.071l-3.106,2.824
			c-1.106,0.842-2.237,1.654-3.355,2.482c-1.182,0.732-2.392,1.423-3.586,2.136l-3.784,1.765l-3.944,1.366
			c-1.354,0.317-2.702,0.67-4.063,0.956c-1.379,0.178-2.754,0.415-4.138,0.541c-1.39,0.037-2.781,0.157-4.17,0.123
			c-1.387-0.104-2.784-0.104-4.162-0.293l-2.062-0.32c-0.686-0.115-1.381-0.184-2.048-0.388l-2.02-0.523
			c-0.671-0.179-1.354-0.323-1.998-0.59l-1.959-0.717c-0.651-0.243-1.315-0.455-1.93-0.783l-1.879-0.903
			c-0.622-0.309-1.267-0.574-1.847-0.962c-1.174-0.74-2.405-1.397-3.532-2.207c-1.103-0.844-2.244-1.641-3.313-2.522l-3.075-2.808
			h0.607L20.835,97.6v-0.578l3.57,3.238c1.275,0.976,2.583,1.911,3.873,2.87c1.359,0.855,2.76,1.646,4.138,2.474
			c1.436,0.719,2.91,1.366,4.363,2.054c1.501,0.57,3.03,1.076,4.544,1.618c1.553,0.412,3.121,0.777,4.682,1.169l4.774,0.711
			l4.821,0.24c1.607-0.077,3.218-0.119,4.823-0.224c1.592-0.233,3.193-0.416,4.779-0.688c1.562-0.387,3.142-0.713,4.69-1.148
			c1.517-0.538,3.06-1.01,4.556-1.601c1.457-0.685,2.947-1.305,4.377-2.042c1.382-0.825,2.802-1.597,4.154-2.464
			c1.292-0.955,2.609-1.875,3.884-2.856l3.614-3.249l3.239-3.573c0.989-1.271,1.92-2.59,2.884-3.882
			c0.875-1.352,1.653-2.768,2.486-4.148c0.744-1.429,1.372-2.918,2.065-4.375c0.599-1.496,1.079-3.04,1.625-4.558
			c0.442-1.55,0.777-3.132,1.173-4.697c0.279-1.588,0.471-3.193,0.712-4.79c0.112-1.61,0.162-3.225,0.247-4.838l-0.219-4.841
			l-0.691-4.797c-0.386-1.569-0.744-3.146-1.152-4.709c-0.537-1.524-1.038-3.063-1.604-4.575c-0.684-1.464-1.328-2.95-2.045-4.397
			c-0.825-1.39-1.615-2.804-2.47-4.175c-0.957-1.301-1.892-2.622-2.869-3.91L90.646,27.281z"/>
	</g>
	<g>
		
			<rect x="48.005" y="6.695" transform="matrix(-0.7071 -0.7071 0.7071 -0.7071 49.0675 137.4709)" fill="#EAC975" width="10" height="103.757"/>
		<path fill="#3F2505" d="M86.15,18.281l7.132,7.081l0.06,0.06l-0.06,0.061l-73.14,73.595l-0.28,0.281l-0.286-0.281l-7.117-7.025
			l-0.327-0.323l0.327-0.333c3.029-3.085,6.094-6.134,9.148-9.193l9.169-9.173c6.123-6.105,12.202-12.254,18.36-18.323
			l18.457-18.228l9.235-9.106L86.15,18.281z M86.15,18.423l-9.021,9.25l-9.105,9.237L49.8,55.369
			c-6.069,6.159-12.216,12.239-18.321,18.363l-9.172,9.17c-3.059,3.056-6.108,6.12-9.192,9.15v-0.656l7.027,7.115h-0.565
			l73.584-73.149v0.12L86.15,18.423z"/>
	</g>
	<g>
		<linearGradient id="SVGID_2_" gradientUnits="userSpaceOnUse" x1="91.1201" y1="62.791" x2="19.1201" y2="61.1245">
			<stop  offset="0" style="stop-color:#3C4BB3"/>
			<stop  offset="0.2258" style="stop-color:#4B72DB"/>
			<stop  offset="1" style="stop-color:#99CCFF"/>
		</linearGradient>
		<circle fill="url(#SVGID_2_)" cx="54.948" cy="61.953" r="36.75"/>
		<path fill="#87EA59" d="M49.586,48.59c0,0-0.598-8.701,4.185-7.506c0,0,2.391,0.22,5.379,3.697c0,0,6.576-3.697,8.369-7.283
			c0,0,6.576-2.392,7.174,0c0,0-8.635,10.301-9.693,16.503c-0.591,3.461,2.541,5.888,1.324,13.983
			c-0.563,3.743-5.381,9.894-10.162,11.222c0,0-9.564,1.93-10.76-3.451c0,0,3.885-4.34,4.184-10.76c0,0-2.391-3.498-4.184-5.933
			C45.402,59.063,42.65,54.835,49.586,48.59z"/>
		<path fill="#87EA59" d="M46.598,87c0,0,1.314-2.451,5.439-1.121s2.451,2.287,0,4.773c-2.451,2.483-2.451,1.354-5.439,1.656
			C43.608,92.613,44.206,87,44.206,87H46.598z"/>
	</g>
	<g>
		<path fill="#EAC975" d="M86.572,128c0-4-14.215-8.25-31.75-8.25S23.073,124,23.073,128H86.572z"/>
		<path fill="#3F2505" d="M86.513,127.949c-0.05-0.691-0.457-1.269-0.945-1.739c-0.509-0.484-1.103-0.872-1.712-1.225
			c-1.229-0.693-2.547-1.222-3.885-1.675c-2.682-0.899-5.451-1.524-8.24-2.001c-5.582-0.949-11.251-1.323-16.908-1.305
			c-5.656,0.039-11.318,0.476-16.876,1.481c-2.776,0.504-5.531,1.158-8.183,2.079c-1.323,0.463-2.623,1.002-3.816,1.693
			c-0.59,0.349-1.163,0.733-1.634,1.193c-0.47,0.454-0.815,1.01-0.828,1.548l-0.413-0.413l15.875-0.082l15.875,0.005l15.875,0.15
			C75.969,127.723,81.241,127.825,86.513,127.949z M86.572,128.05c-5.292,0.124-10.583,0.228-15.875,0.29l-15.875,0.15
			l-15.875,0.005l-15.875-0.082l-0.429-0.002L22.66,128c0.035-0.904,0.559-1.606,1.095-2.123c0.552-0.525,1.171-0.93,1.802-1.296
			c1.269-0.719,2.608-1.256,3.963-1.718c2.716-0.915,5.504-1.549,8.31-2.032c5.615-0.963,11.31-1.35,16.993-1.336
			c5.683,0.043,11.37,0.493,16.961,1.513c2.794,0.512,5.567,1.174,8.253,2.11c1.34,0.472,2.66,1.02,3.895,1.736
			c0.611,0.363,1.209,0.764,1.724,1.265c0.504,0.487,0.949,1.15,0.967,1.875l0.001,0.055L86.572,128.05z"/>
	</g>
</g>
</svg>
