<?xml version="1.0" encoding="utf-8"?>
<!-- Generator: Adobe Illustrator 16.0.0, SVG Export Plug-In . SVG Version: 6.00 Build 0)  -->
<!DOCTYPE svg PUBLIC "-//W3C//DTD SVG 1.1//EN" "http://www.w3.org/Graphics/SVG/1.1/DTD/svg11.dtd">
<svg version="1.1" id="Layer_1" xmlns="http://www.w3.org/2000/svg" xmlns:xlink="http://www.w3.org/1999/xlink" x="0px" y="0px"
	 width="117px" height="151px" viewBox="0 0 117 151" enable-background="new 0 0 117 151" xml:space="preserve">
<linearGradient id="SVGID_1_" gradientUnits="userSpaceOnUse" x1="44.501" y1="46.8687" x2="89.0018" y2="115.8699">
	<stop  offset="0" style="stop-color:#FFFFFF"/>
	<stop  offset="1" style="stop-color:#000000"/>
</linearGradient>
<path fill="url(#SVGID_1_)" d="M83.49,70.95c0,0,9.76,22.05,4.45,25.91C84.69,99.22,76.71,94.12,71,89.8v60.3c0,0.5-0.45,0.9-1,0.9
	H58c-0.55,0-1-0.4-1-0.9V90.79c-5.56,4.06-12.6,8.25-15.6,6.07c-5.32-3.86,4.44-25.91,4.44-25.91S24.98,58.85,27.01,52.6
	c2.04-6.25,26.02-3.779,26.02-3.779s5.06-23.58,11.64-23.58c6.57,0,11.63,23.58,11.63,23.58s23.99-2.471,26.02,3.779
	C104.35,58.85,83.49,70.95,83.49,70.95z"/>
<path fill="#6D5C32" stroke="#000000" stroke-width="2" stroke-miterlimit="10" d="M65,147.103c0,0.496-0.448,0.897-1,0.897H52
	c-0.552,0-1-0.401-1-0.897V69.897C51,69.401,51.448,69,52,69h12c0.552,0,1,0.401,1,0.897V147.103z"/>
<path fill="#E9F79A" stroke="#000000" stroke-width="2" stroke-miterlimit="10" d="M58.667,22.244
	c6.573,0,11.635,23.576,11.635,23.576s23.985-2.47,26.017,3.78c2.031,6.251-18.826,18.352-18.826,18.352s9.761,22.048,4.444,25.911
	c-5.317,3.862-23.27-12.233-23.27-12.233s-17.953,16.096-23.27,12.233c-5.317-3.863,4.444-25.911,4.444-25.911
	S18.983,55.851,21.015,49.6c2.031-6.25,26.017-3.78,26.017-3.78S52.094,22.244,58.667,22.244z"/>
<line fill="none" stroke="#000000" stroke-width="2" stroke-miterlimit="10" x1="99" y1="58" x2="117" y2="58"/>
<line fill="none" stroke="#000000" stroke-width="2" stroke-miterlimit="10" x1="93.419" y1="37.88" x2="109.008" y2="28.88"/>
<line fill="none" stroke="#000000" stroke-width="2" stroke-miterlimit="10" x1="78.527" y1="23.247" x2="87.528" y2="7.658"/>
<line fill="none" stroke="#000000" stroke-width="2" stroke-miterlimit="10" x1="58" y1="18" x2="58" y2="0"/>
<line fill="none" stroke="#000000" stroke-width="2" stroke-miterlimit="10" x1="37.914" y1="23.739" x2="28.914" y2="8.151"/>
<line fill="none" stroke="#000000" stroke-width="2" stroke-miterlimit="10" x1="23.387" y1="38.753" x2="7.798" y2="29.753"/>
<line fill="none" stroke="#000000" stroke-width="2" stroke-miterlimit="10" x1="18" y1="59" x2="0" y2="59"/>
<line fill="none" stroke="#000000" stroke-width="2" stroke-miterlimit="10" x1="23.772" y1="79.246" x2="8.183" y2="88.246"/>
<line fill="none" stroke="#000000" stroke-width="2" stroke-miterlimit="10" x1="94.035" y1="78.388" x2="109.624" y2="87.388"/>
</svg>
