<?xml version="1.0" encoding="utf-8"?>
<!-- Generator: Adobe Illustrator 16.0.0, SVG Export Plug-In . SVG Version: 6.00 Build 0)  -->
<!DOCTYPE svg PUBLIC "-//W3C//DTD SVG 1.1//EN" "http://www.w3.org/Graphics/SVG/1.1/DTD/svg11.dtd">
<svg version="1.1" id="Layer_1" xmlns="http://www.w3.org/2000/svg" xmlns:xlink="http://www.w3.org/1999/xlink" x="0px" y="0px"
	 width="43px" height="43px" viewBox="0 0 43 43" enable-background="new 0 0 43 43" xml:space="preserve">
<g>
	<g>
		<path fill="#333366" d="M17.733,35.473C7.955,35.473,0,27.517,0,17.739C0,7.96,7.955,0.005,17.733,0.005
			S35.467,7.96,35.467,17.739C35.467,27.517,27.512,35.473,17.733,35.473z M17.733,3.513c-7.844,0-14.226,6.382-14.226,14.226
			c0,7.844,6.381,14.226,14.226,14.226c7.844,0,14.227-6.382,14.227-14.226C31.96,9.895,25.577,3.513,17.733,3.513z"/>
	</g>
	<g>
		<path fill="#333366" d="M40.606,42.998C37.78,40.173,27.838,30.23,27.838,30.23l2.48-2.48c0,0,8.725,8.725,12.768,12.768
			C43.706,41.139,41.227,43.618,40.606,42.998z"/>
	</g>
</g>
</svg>
