<?xml version="1.0" encoding="utf-8"?>
<!-- Generator: Adobe Illustrator 16.0.0, SVG Export Plug-In . SVG Version: 6.00 Build 0)  -->
<!DOCTYPE svg PUBLIC "-//W3C//DTD SVG 1.1//EN" "http://www.w3.org/Graphics/SVG/1.1/DTD/svg11.dtd">
<svg version="1.1" id="Layer_1" xmlns="http://www.w3.org/2000/svg" xmlns:xlink="http://www.w3.org/1999/xlink" x="0px" y="0px"
	 width="59.25px" height="64.5px" viewBox="0 0 59.25 64.5" enable-background="new 0 0 59.25 64.5" xml:space="preserve">
<g>
	<g>
		<path fill-rule="evenodd" clip-rule="evenodd" d="M46.989,54.635c-1.711-0.229-1.454-1.669-1.723-2.757
			c-0.03-0.123,0.44-0.531,0.672-0.526c1.267,0.028,2.532,0.183,3.8,0.222c1.405,0.043,2.813,0.015,4.218,0.005
			c0.272-0.001,0.549-0.038,0.816-0.097c0.886-0.193,1.088-0.063,1.08,0.864c-0.003,0.441-0.069,0.906-0.218,1.321
			c-0.333,0.931-0.744,1.022-1.481,0.387c-0.36-0.309-0.712-0.556-1.149-0.023c0.381,0.456,1.7,0.234,0.834,1.459
			c0.444,0.069,0.757,0.097,1.056,0.172c0.19,0.049,0.364,0.17,0.546,0.259c-0.16,0.162-0.293,0.386-0.486,0.471
			c-0.244,0.108-0.548,0.072-0.807,0.157c-0.128,0.042-0.214,0.218-0.318,0.331c0.123,0.101,0.235,0.268,0.369,0.287
			c0.294,0.043,0.617-0.048,0.896,0.03c0.193,0.055,0.335,0.301,0.498,0.461c-0.171,0.139-0.321,0.336-0.516,0.399
			c-0.229,0.075-0.511-0.013-0.744,0.055c-0.192,0.056-0.346,0.236-0.519,0.36c0.184,0.133,0.35,0.335,0.55,0.383
			c0.395,0.095,0.81,0.104,1.216,0.148c0.026,0.088,0.054,0.177,0.08,0.265c-0.214,0.147-0.412,0.335-0.648,0.426
			c-0.2,0.079-0.479-0.018-0.66,0.081c-0.226,0.122-0.389,0.364-0.576,0.555c0.204,0.135,0.401,0.372,0.616,0.389
			c0.646,0.053,1.298,0.019,1.948,0.019c-0.016,1.267-0.809,1.861-1.902,1.563c-0.794-0.218-1.598-0.415-2.409-0.531
			c-0.472-0.066-0.971,0.017-1.031,0.698c-0.014,0.15-0.229,0.4-0.343,0.396c-0.153-0.006-0.373-0.188-0.43-0.344
			c-0.15-0.42-0.337-0.869-0.318-1.3c0.06-1.424,0.161-2.851,0.329-4.269c0.131-1.098,0.032-1.261-1.114-1.256
			c-0.243,0.445-0.475,0.873-0.733,1.347c0.182,0.33,0.44,0.709,0.604,1.124c0.195,0.493,0.118,0.917-0.546,0.931
			c-0.56,0.011-0.735,0.298-0.697,0.823c0.044,0.625,0.11,1.261,0.04,1.877c-0.037,0.333-0.339,0.634-0.523,0.949
			c-0.167-0.309-0.466-0.611-0.473-0.924c-0.021-0.796,0.089-1.594,0.154-2.485c-0.343-0.094-0.747-0.193-1.145-0.312
			c-0.655-0.195-0.789-0.669-0.33-1.173c0.153-0.167,0.331-0.31,0.5-0.46c0.147-0.132,0.296-0.26,0.445-0.389
			c-0.05-0.07-0.071-0.111-0.103-0.14c-0.303-0.287-0.609-0.571-0.915-0.855c0.313-0.293,0.61-0.604,0.943-0.87
			c0.179-0.144,0.418-0.209,0.629-0.311C46.975,54.762,46.982,54.698,46.989,54.635z M47.087,53.897
			c0.655,1.158,1.366,1.512,2.392,1.231c0.891-0.245,1.769-0.542,2.644-0.839c0.167-0.058,0.292-0.234,0.437-0.355
			c-0.177-0.091-0.354-0.257-0.532-0.258c-1.204-0.014-2.409-0.008-3.613,0.026C48.003,53.715,47.594,53.82,47.087,53.897z
			 M50.988,53.175c0.236-0.161,0.548-0.373,0.86-0.586c-0.312-0.17-0.607-0.434-0.938-0.482c-0.441-0.065-1.16-0.287-1.227,0.381
			C49.605,53.262,50.414,52.894,50.988,53.175z M52.201,59.736c-0.153,0.02-0.357-0.011-0.49,0.073
			c-0.226,0.142-0.406,0.355-0.605,0.54c0.253,0.136,0.493,0.331,0.762,0.39c0.228,0.049,0.501-0.025,0.729-0.107
			c0.262-0.095,0.498-0.26,0.745-0.394c-0.224-0.154-0.438-0.328-0.678-0.452C52.541,59.724,52.372,59.752,52.201,59.736z
			 M52.115,59.188c0.451-0.255,1.208-0.557,1.179-0.689c-0.144-0.663-0.794-0.446-1.237-0.398c-0.336,0.035-0.645,0.334-0.965,0.517
			C51.397,58.787,51.704,58.957,52.115,59.188z M47.348,58.781c0.33-0.272,0.602-0.497,0.875-0.722
			c-0.269-0.24-0.615-0.726-0.79-0.67c-0.386,0.123-0.686,0.518-1.021,0.802C46.674,58.357,46.937,58.522,47.348,58.781z
			 M52.38,52.361c0.106,0.294,0.17,0.653,0.249,0.657c0.656,0.027,1.316,0,1.973-0.047c0.078-0.006,0.226-0.278,0.19-0.351
			c-0.063-0.119-0.243-0.242-0.378-0.248C53.795,52.347,53.176,52.361,52.38,52.361z M48.818,52.34c-0.528,0-1.029-0.03-1.522,0.018
			c-0.165,0.016-0.31,0.23-0.464,0.354c0.157,0.144,0.295,0.374,0.472,0.409c0.337,0.066,0.695,0.032,1.044,0.017
			C48.922,53.111,49.004,52.802,48.818,52.34z M51.21,57.082c0.883,0.421,1.796,0.277,2.222-0.316
			C52.663,56.223,51.697,56.342,51.21,57.082z M53.585,55.184c-0.297-0.223-0.511-0.516-0.709-0.505
			c-0.587,0.028-1.146,0.211-1.454,0.83C52.164,55.977,52.757,55.644,53.585,55.184z M46.822,56.077
			c0.474,0.109,0.943,0.319,1.259-0.205c0.039-0.062-0.29-0.473-0.504-0.536C47.016,55.168,46.859,55.548,46.822,56.077z"/>
		<path fill-rule="evenodd" clip-rule="evenodd" d="M32.364,58.34c-0.348-0.067-0.698-0.201-1.042-0.184
			c-0.367,0.02-0.723,0.195-1.087,0.275c-0.444,0.097-0.835,0.021-0.884-0.52c-0.047-0.511,0.252-0.71,0.746-0.703
			c0.902,0.012,1.805,0.004,2.768,0.004c0.027-0.268,0.047-0.478,0.067-0.686c-0.112-0.051-0.177-0.104-0.244-0.105
			c-0.703-0.01-1.408,0.022-2.107-0.031c-0.27-0.021-0.524-0.23-0.786-0.354c0.235-0.127,0.467-0.262,0.708-0.377
			c0.287-0.136,0.582-0.257,0.874-0.384c-0.005-0.099-0.01-0.197-0.016-0.296c-0.306-0.091-0.613-0.176-0.918-0.273
			c-0.38-0.123-0.933-0.062-0.9-0.688c0.033-0.645,0.536-0.626,0.997-0.626c1.406-0.001,2.813,0.005,4.218-0.008
			c0.215-0.002,0.569-0.021,0.619-0.137c0.28-0.63,0.845-0.453,1.319-0.571c1.114-0.276,2.211-0.619,3.326-0.891
			c0.32-0.079,0.679-0.008,1.02-0.005c-0.188,0.291-0.31,0.74-0.572,0.848c-1.313,0.539-2.646,1.294-4.006,1.37
			c-1.05,0.061-1.529,0.639-2.416,1.082c0.326,0.211,0.542,0.309,0.699,0.464c0.141,0.141,0.322,0.371,0.288,0.516
			c-0.033,0.145-0.302,0.304-0.485,0.329c-0.364,0.051-0.739,0.016-1.154,0.016c0,0.283,0,0.494,0,0.807
			c0.47,0,0.92-0.047,1.353,0.02c0.215,0.034,0.396,0.276,0.594,0.424c-0.192,0.145-0.367,0.329-0.58,0.423
			c-0.221,0.097-0.479,0.105-0.698,0.148c-0.215,0.585,1.147,0.932,0.183,1.491c-0.241,0.141-0.697-0.09-1.188-0.172
			c0,0.186-0.005,0.481,0,0.775c0.009,0.523,0.105,1.063,0.003,1.563c-0.051,0.253-0.458,0.431-0.703,0.644
			c-0.139-0.239-0.374-0.469-0.398-0.719c-0.058-0.614-0.019-1.236-0.019-2.012c-0.494,0.411-0.839,0.771-1.252,1.018
			c-0.299,0.18-0.688,0.272-1.037,0.272c-0.183,0-0.466-0.256-0.521-0.446c-0.05-0.176,0.086-0.525,0.245-0.618
			c0.576-0.341,1.189-0.621,1.803-0.893c0.38-0.169,0.784-0.279,1.177-0.416C32.358,58.591,32.361,58.465,32.364,58.34z
			 M32.089,55.445c0.475,0,0.906,0,1.392,0c-0.02-0.298-0.036-0.533-0.054-0.78c-0.479,0-0.893,0-1.338,0
			C32.089,54.947,32.089,55.183,32.089,55.445z"/>
		<path fill-rule="evenodd" clip-rule="evenodd" d="M17.473,60.651c0.26,0,0.521,0,0.78,0c1.935,0,3.871-0.002,5.804,0.002
			c0.339,0.001,0.76-0.095,0.783,0.446c0.022,0.559-0.383,0.558-0.777,0.558c-1.81-0.002-3.619-0.02-5.428,0.011
			c-0.534,0.008-1.069,0.141-1.6,0.233c-0.505,0.089-0.845-0.037-0.894-0.605c-0.001-0.025-0.001-0.05-0.001-0.075
			c0.017-2.345-0.246-1.919,1.801-1.943c1.759-0.021,3.518,0.004,5.277-0.017c0.197-0.002,0.392-0.168,0.589-0.258
			c-0.2-0.09-0.399-0.256-0.599-0.257c-1.985-0.021-3.971-0.013-5.955-0.014c-0.202,0-0.434,0.058-0.596-0.022
			c-0.209-0.105-0.363-0.322-0.542-0.491c0.19-0.184,0.376-0.524,0.567-0.528c2.512-0.036,5.025-0.023,7.538-0.022
			c0.05,0,0.111-0.01,0.148,0.015c0.852,0.531,0.295,1.364,0.419,2.049c0.083,0.466-0.269,0.572-0.676,0.571
			c-1.96-0.008-3.921-0.006-5.881-0.001c-0.254,0-0.51,0.031-0.765,0.048C17.469,60.45,17.472,60.55,17.473,60.651z"/>
		<path fill-rule="evenodd" clip-rule="evenodd" d="M38.627,56.448c-0.583,0-1.12,0-1.735,0c0.043,0.735,0.095,1.429,0.123,2.122
			c0.06,1.432-0.833,2.56-2.07,2.553c-0.303-0.003-0.604-0.222-0.899-0.441c1.673-1.038,1.779-2.616,1.822-4.228
			c0.018-0.698,0.085-1.393,0.267-2.147c0.612,1.09,1.558,0.779,2.391,0.79c1.274,0.018,2.549,0.004,3.829,0.004
			c-0.121,1.138-0.877,1.682-1.856,1.407c-0.78-0.222-0.976-0.115-1,0.673c-0.015,0.468,0.036,0.959,0.174,1.403
			c0.363,1.17,0.342,2.334-0.006,3.48c-0.088,0.288-0.47,0.486-0.717,0.727c-0.186-0.257-0.531-0.516-0.53-0.771
			c0.017-1.65,0.106-3.301,0.173-4.95C38.601,56.877,38.614,56.685,38.627,56.448z"/>
		<path fill-rule="evenodd" clip-rule="evenodd" d="M8.509,60.53c1.175,0,2.324,0.002,3.475-0.002
			c0.395-0.001,0.79-0.003,0.802,0.542c0.012,0.574-0.385,0.616-0.82,0.616c-2.961-0.004-5.921-0.006-8.881,0.003
			c-0.434,0.002-0.78-0.109-0.792-0.584c-0.011-0.493,0.35-0.584,0.778-0.58c1.5,0.012,3,0.005,4.548,0.005c0-0.382,0-0.692,0-0.863
			c-0.59-0.321-1.174-0.52-1.6-0.895c-0.715-0.63-0.66-1.672,0.018-2.347c0.901-0.897,2.586-0.826,3.368,0.141
			c0.623,0.77,0.519,1.896-0.358,2.434C8.427,59.378,8.318,59.802,8.509,60.53z M7.632,56.711c-0.606,0.011-1.053,0.413-1.038,0.938
			c0.015,0.519,0.479,0.9,1.084,0.891c0.607-0.01,1.054-0.412,1.04-0.937C8.704,57.087,8.232,56.7,7.632,56.711z"/>
		<path fill-rule="evenodd" clip-rule="evenodd" d="M17.898,53.293c0.527,0.001,1.058-0.032,1.581,0.02
			c0.188,0.018,0.358,0.238,0.537,0.366c-0.183,0.126-0.361,0.347-0.552,0.358c-0.599,0.035-1.205-0.043-1.803-0.003
			c-0.245,0.017-0.477,0.222-0.713,0.342c0.247,0.109,0.489,0.292,0.743,0.316c0.548,0.05,1.106-0.009,1.656,0.034
			c0.172,0.015,0.33,0.213,0.496,0.326c-0.162,0.119-0.317,0.328-0.485,0.341c-0.625,0.043-1.257-0.007-1.881,0.041
			c-0.196,0.017-0.375,0.232-0.562,0.357c0.202,0.139,0.396,0.381,0.607,0.395c0.624,0.039,1.253-0.042,1.878-0.011
			c0.198,0.009,0.387,0.221,0.582,0.341c-0.202,0.136-0.395,0.363-0.608,0.387c-0.521,0.059-1.058-0.025-1.577,0.033
			c-0.475,0.055-0.951,0.183-1.402,0.349c-0.487,0.18-0.792,0.154-0.796-0.45c-0.005-0.979,0.006-1.96-0.005-2.938
			c-0.006-0.456,0.207-0.624,0.646-0.608C16.793,53.308,17.346,53.293,17.898,53.293z"/>
		<path fill-rule="evenodd" clip-rule="evenodd" d="M7.399,55.503c-1.177,0-2.354,0-3.531,0.001c-0.385,0-0.855,0.021-0.793-0.507
			c0.024-0.193,0.488-0.472,0.754-0.477c2.379-0.037,4.76-0.037,7.138,0c0.264,0.005,0.717,0.28,0.747,0.481
			c0.085,0.557-0.41,0.498-0.781,0.501C9.754,55.505,8.576,55.503,7.399,55.503z"/>
		<path fill-rule="evenodd" clip-rule="evenodd" d="M23.832,55.066c0-0.524-0.067-1.062,0.027-1.569
			c0.047-0.253,0.385-0.454,0.592-0.679c0.197,0.212,0.554,0.417,0.566,0.64c0.059,1.121,0.057,2.248-0.001,3.368
			c-0.012,0.208-0.385,0.397-0.59,0.596c-0.198-0.211-0.532-0.4-0.567-0.636C23.775,56.225,23.832,55.642,23.832,55.066z"/>
		<path fill-rule="evenodd" clip-rule="evenodd" d="M21.993,55.409c-0.391,0-0.67,0.04-0.931-0.015
			c-0.154-0.03-0.28-0.206-0.417-0.317c0.134-0.14,0.249-0.361,0.41-0.404c0.256-0.067,0.542-0.018,0.938-0.018
			c0-0.426-0.053-0.823,0.018-1.196c0.045-0.235,0.276-0.435,0.423-0.65c0.154,0.203,0.433,0.403,0.441,0.612
			c0.044,1.1,0.042,2.201,0.001,3.3c-0.008,0.189-0.278,0.367-0.427,0.552c-0.151-0.188-0.398-0.358-0.436-0.566
			C21.941,56.321,21.993,55.916,21.993,55.409z"/>
		<path fill-rule="evenodd" clip-rule="evenodd" d="M32.639,51.585c0.576,0,1.158-0.048,1.725,0.024
			c0.212,0.027,0.392,0.33,0.586,0.507c-0.197,0.18-0.387,0.508-0.591,0.516c-1.15,0.052-2.303,0.052-3.454,0
			c-0.21-0.008-0.408-0.334-0.612-0.514c0.207-0.177,0.396-0.479,0.621-0.508C31.481,51.536,32.063,51.587,32.639,51.585z"/>
		<path fill-rule="evenodd" clip-rule="evenodd" d="M7.336,52.901c0.577,0,1.158-0.031,1.73,0.018
			c0.191,0.017,0.365,0.239,0.546,0.367c-0.17,0.176-0.334,0.495-0.51,0.502c-1.204,0.044-2.41,0.044-3.614-0.002
			c-0.179-0.007-0.345-0.328-0.518-0.504c0.186-0.128,0.365-0.349,0.558-0.364C6.127,52.87,6.733,52.901,7.336,52.901z"/>
		<path fill-rule="evenodd" clip-rule="evenodd" d="M46.479,59.57c-0.169,0.69-0.243,1.314-0.487,1.86
			c-0.129,0.288-0.532,0.505-0.858,0.631c-0.152,0.059-0.488-0.123-0.605-0.29c-0.088-0.127-0.033-0.463,0.083-0.603
			c0.449-0.547,0.946-1.054,1.435-1.568C46.081,59.563,46.184,59.588,46.479,59.57z"/>
		<path fill-rule="evenodd" clip-rule="evenodd" d="M49.128,61.168c-0.026,0.194,0,0.426-0.097,0.577
			c-0.106,0.166-0.326,0.26-0.497,0.385c-0.105-0.168-0.277-0.327-0.304-0.508c-0.072-0.492-0.139-0.995-0.096-1.486
			c0.019-0.238,0.286-0.457,0.442-0.684c0.13,0.199,0.318,0.384,0.38,0.604C49.058,60.411,49.075,60.792,49.128,61.168z"/>
	</g>
	<path fill-rule="evenodd" clip-rule="evenodd" d="M43.2,42.5c0,5-6.255,5.367-13.97,5.367S15.261,47.5,15.261,42.5H43.2z"/>
	<path fill-rule="evenodd" clip-rule="evenodd" d="M42.75,41.47c0,0.292,0.23,0.03-0.065,0.03H15.791
		c-0.294,0-2.041,0.261-2.041-0.03v-2.367c0-0.291,1.747-1.603,2.041-1.603h26.895c0.295,0,0.065,1.312,0.065,1.603V41.47z"/>
	<path fill-rule="evenodd" clip-rule="evenodd" d="M39.75,37.261V20.947c0-0.291,0.833-0.447,0.539-0.447H18.453
		c-0.294,0-0.703,0.156-0.703,0.447v16.314c0,0.291,0.409,0.239,0.703,0.239h21.836C40.583,37.5,39.75,37.551,39.75,37.261z
		 M33.195,35.5h-8.01c-0.109,0-1.436,0.189-1.436-0.033V22.961c0-0.223,1.327,0.539,1.436,0.539h7.564v-0.539
		c0-0.223,0.653,0.539,0.543,0.539H32.75v11.967C32.75,35.486,33.192,35.487,33.195,35.5h0.098
		C33.394,35.5,33.225,35.645,33.195,35.5z"/>
	<path fill-rule="evenodd" clip-rule="evenodd" d="M29.334,18.646l-14.34-1.252l0.527,1.645c0.061,1.033,12.049,0.889,13.813,0.855
		c0,0,13.749,0.263,13.814-0.855l0.527-1.645L29.334,18.646z"/>
	<path fill-rule="evenodd" clip-rule="evenodd" d="M43.2,17.052C38.71,17.118,31.834,12.5,31.834,12.5h-2.407h-0.225h-2.407
		c0,0-6.876,4.618-11.364,4.552c-4.343-0.063,11.903,1.412,13.883,1.271C31.295,18.464,47.542,16.989,43.2,17.052z"/>
	<path fill-rule="evenodd" clip-rule="evenodd" d="M32.097,11.258c0,0.401-0.201,1.242-0.45,1.242h-4.752
		c-0.25,0-0.323-0.841-0.323-1.242l0.415-2.898c0-0.342,0.062-0.86,0.273-0.86H31.3c0.211,0,0.382,0.518,0.382,0.86L32.097,11.258z"
		/>
</g>
<path fill-rule="evenodd" clip-rule="evenodd" d="M31.75,4.378c0-1.245-0.8-1.878-2.214-1.878h-0.224
	c-1.415,0-2.562,0.634-2.562,1.878v0.98c0,1.244,1.147,2.141,2.562,2.141h0.224c1.415,0,2.214-0.897,2.214-2.141V4.378z"/>
</svg>
